{
	"patcher" : 	{
		"fileversion" : 1,
		"appversion" : 		{
			"major" : 6,
			"minor" : 0,
			"revision" : 5
		}
,
		"rect" : [ 447.0, 413.0, 334.0, 105.0 ],
		"bgcolor" : [ 1.0, 0.998303, 0.995149, 1.0 ],
		"bglocked" : 0,
		"openinpresentation" : 1,
		"default_fontsize" : 10.0,
		"default_fontface" : 0,
		"default_fontname" : "Arial",
		"gridonopen" : 0,
		"gridsize" : [ 5.0, 5.0 ],
		"gridsnaponopen" : 0,
		"statusbarvisible" : 2,
		"toolbarvisible" : 1,
		"boxanimatetime" : 200,
		"imprint" : 0,
		"enablehscroll" : 1,
		"enablevscroll" : 1,
		"devicewidth" : 0.0,
		"description" : "",
		"digest" : "",
		"tags" : "",
		"boxes" : [ 			{
				"box" : 				{
					"fontname" : "Arial",
					"fontsize" : 10.0,
					"id" : "obj-8",
					"maxclass" : "newobj",
					"numinlets" : 1,
					"numoutlets" : 1,
					"outlettype" : [ "open" ],
					"patching_rect" : [ 152.5, 75.0, 38.0, 18.0 ],
					"text" : "t open"
				}

			}
, 			{
				"box" : 				{
					"fontname" : "Arial",
					"fontsize" : 10.0,
					"id" : "obj-9",
					"maxclass" : "newobj",
					"numinlets" : 1,
					"numoutlets" : 1,
					"outlettype" : [ "" ],
					"patching_rect" : [ 152.5, 95.0, 46.0, 18.0 ],
					"text" : "pcontrol"
				}

			}
, 			{
				"box" : 				{
					"fontname" : "Arial",
					"fontsize" : 10.0,
					"id" : "obj-7",
					"maxclass" : "newobj",
					"numinlets" : 1,
					"numoutlets" : 1,
					"outlettype" : [ "open" ],
					"patching_rect" : [ 7.5, 75.0, 38.0, 18.0 ],
					"text" : "t open"
				}

			}
, 			{
				"box" : 				{
					"fontname" : "Arial",
					"fontsize" : 10.0,
					"id" : "obj-6",
					"maxclass" : "newobj",
					"numinlets" : 1,
					"numoutlets" : 1,
					"outlettype" : [ "" ],
					"patching_rect" : [ 7.5, 95.0, 46.0, 18.0 ],
					"text" : "pcontrol"
				}

			}
, 			{
				"box" : 				{
					"fontname" : "Arial",
					"fontsize" : 10.0,
					"id" : "obj-5",
					"maxclass" : "newobj",
					"numinlets" : 1,
					"numoutlets" : 0,
					"patcher" : 					{
						"fileversion" : 1,
						"appversion" : 						{
							"major" : 6,
							"minor" : 0,
							"revision" : 5
						}
,
						"rect" : [ 454.0, 352.0, 242.0, 346.0 ],
						"bglocked" : 0,
						"openinpresentation" : 1,
						"default_fontsize" : 10.0,
						"default_fontface" : 0,
						"default_fontname" : "Arial",
						"gridonopen" : 0,
						"gridsize" : [ 5.0, 5.0 ],
						"gridsnaponopen" : 0,
						"statusbarvisible" : 2,
						"toolbarvisible" : 1,
						"boxanimatetime" : 200,
						"imprint" : 0,
						"enablehscroll" : 1,
						"enablevscroll" : 1,
						"devicewidth" : 0.0,
						"description" : "",
						"digest" : "",
						"tags" : "",
						"boxes" : [ 							{
								"box" : 								{
									"fontname" : "Arial",
									"fontsize" : 10.0,
									"id" : "obj-15",
									"maxclass" : "newobj",
									"numinlets" : 1,
									"numoutlets" : 1,
									"outlettype" : [ "open" ],
									"patching_rect" : [ 590.0, 100.0, 38.0, 18.0 ],
									"text" : "t open"
								}

							}
, 							{
								"box" : 								{
									"fontname" : "Arial",
									"fontsize" : 10.0,
									"id" : "obj-16",
									"maxclass" : "newobj",
									"numinlets" : 1,
									"numoutlets" : 1,
									"outlettype" : [ "" ],
									"patching_rect" : [ 590.0, 123.0, 46.0, 18.0 ],
									"text" : "pcontrol"
								}

							}
, 							{
								"box" : 								{
									"fontname" : "Arial",
									"fontsize" : 10.0,
									"id" : "obj-17",
									"maxclass" : "newobj",
									"numinlets" : 1,
									"numoutlets" : 0,
									"patcher" : 									{
										"fileversion" : 1,
										"appversion" : 										{
											"major" : 6,
											"minor" : 0,
											"revision" : 5
										}
,
										"rect" : [ 321.0, 113.0, 296.0, 178.0 ],
										"bglocked" : 0,
										"openinpresentation" : 1,
										"default_fontsize" : 10.0,
										"default_fontface" : 0,
										"default_fontname" : "Arial",
										"gridonopen" : 0,
										"gridsize" : [ 5.0, 5.0 ],
										"gridsnaponopen" : 0,
										"statusbarvisible" : 2,
										"toolbarvisible" : 1,
										"boxanimatetime" : 200,
										"imprint" : 0,
										"enablehscroll" : 1,
										"enablevscroll" : 1,
										"devicewidth" : 0.0,
										"description" : "",
										"digest" : "",
										"tags" : "",
										"boxes" : [ 											{
												"box" : 												{
													"bgcolor" : [ 0.65098, 0.65098, 0.65098, 1.0 ],
													"fontface" : 3,
													"fontname" : "Arial",
													"fontsize" : 12.0,
													"id" : "obj-5",
													"maxclass" : "message",
													"numinlets" : 2,
													"numoutlets" : 1,
													"outlettype" : [ "" ],
													"patching_rect" : [ 110.0, 125.0, 147.0, 18.0 ],
													"presentation" : 1,
													"presentation_rect" : [ 65.0, 125.0, 166.0, 18.0 ],
													"text" : "routing-packing utilities",
													"textcolor" : [ 0.901961, 0.901961, 0.901961, 1.0 ]
												}

											}
, 											{
												"box" : 												{
													"bgcolor" : [ 0.65098, 0.65098, 0.65098, 1.0 ],
													"fontface" : 3,
													"fontname" : "Arial",
													"fontsize" : 12.0,
													"id" : "obj-4",
													"maxclass" : "message",
													"numinlets" : 2,
													"numoutlets" : 1,
													"outlettype" : [ "" ],
													"patching_rect" : [ 75.0, 95.0, 115.0, 18.0 ],
													"presentation" : 1,
													"presentation_rect" : [ 65.0, 100.0, 166.0, 18.0 ],
													"text" : "match items in list",
													"textcolor" : [ 0.901961, 0.901961, 0.901961, 1.0 ]
												}

											}
, 											{
												"box" : 												{
													"bgcolor" : [ 0.65098, 0.65098, 0.65098, 1.0 ],
													"fontface" : 3,
													"fontname" : "Arial",
													"fontsize" : 12.0,
													"id" : "obj-3",
													"maxclass" : "message",
													"numinlets" : 2,
													"numoutlets" : 1,
													"outlettype" : [ "" ],
													"patching_rect" : [ 55.0, 65.0, 69.0, 18.0 ],
													"presentation" : 1,
													"presentation_rect" : [ 65.0, 75.0, 166.0, 18.0 ],
													"text" : "find range",
													"textcolor" : [ 0.901961, 0.901961, 0.901961, 1.0 ]
												}

											}
, 											{
												"box" : 												{
													"bgcolor" : [ 0.65098, 0.65098, 0.65098, 1.0 ],
													"fontface" : 3,
													"fontname" : "Arial",
													"fontsize" : 12.0,
													"id" : "obj-26",
													"maxclass" : "message",
													"numinlets" : 2,
													"numoutlets" : 1,
													"outlettype" : [ "" ],
													"patching_rect" : [ 35.0, 40.0, 121.0, 18.0 ],
													"presentation" : 1,
													"presentation_rect" : [ 65.0, 50.0, 166.0, 18.0 ],
													"text" : "(in)activity detector",
													"textcolor" : [ 0.901961, 0.901961, 0.901961, 1.0 ]
												}

											}
, 											{
												"box" : 												{
													"fontname" : "Arial",
													"fontsize" : 10.0,
													"hidden" : 1,
													"id" : "obj-135",
													"maxclass" : "newobj",
													"numinlets" : 1,
													"numoutlets" : 0,
													"patcher" : 													{
														"fileversion" : 1,
														"appversion" : 														{
															"major" : 6,
															"minor" : 0,
															"revision" : 5
														}
,
														"rect" : [ 25.0, 69.0, 640.0, 480.0 ],
														"bglocked" : 0,
														"openinpresentation" : 0,
														"default_fontsize" : 10.0,
														"default_fontface" : 0,
														"default_fontname" : "Arial",
														"gridonopen" : 0,
														"gridsize" : [ 5.0, 5.0 ],
														"gridsnaponopen" : 0,
														"statusbarvisible" : 2,
														"toolbarvisible" : 1,
														"boxanimatetime" : 200,
														"imprint" : 0,
														"enablehscroll" : 1,
														"enablevscroll" : 1,
														"devicewidth" : 0.0,
														"description" : "",
														"digest" : "",
														"tags" : "",
														"boxes" : [ 															{
																"box" : 																{
																	"fontname" : "Arial",
																	"fontsize" : 10.0,
																	"id" : "obj-1",
																	"maxclass" : "newobj",
																	"numinlets" : 1,
																	"numoutlets" : 1,
																	"outlettype" : [ "" ],
																	"patching_rect" : [ 50.0, 75.0, 51.0, 18.0 ],
																	"text" : "tosymbol"
																}

															}
, 															{
																"box" : 																{
																	"fontname" : "Arial",
																	"fontsize" : 10.0,
																	"id" : "obj-5",
																	"maxclass" : "newobj",
																	"numinlets" : 1,
																	"numoutlets" : 1,
																	"outlettype" : [ "" ],
																	"patching_rect" : [ 50.0, 125.0, 69.0, 18.0 ],
																	"text" : "prepend load"
																}

															}
, 															{
																"box" : 																{
																	"fontname" : "Arial",
																	"fontsize" : 10.0,
																	"id" : "obj-4",
																	"maxclass" : "newobj",
																	"numinlets" : 2,
																	"numoutlets" : 2,
																	"outlettype" : [ "", "" ],
																	"patching_rect" : [ 50.0, 100.0, 114.0, 18.0 ],
																	"text" : "combine name .maxpat"
																}

															}
, 															{
																"box" : 																{
																	"fontname" : "Arial",
																	"fontsize" : 10.0,
																	"id" : "obj-3",
																	"maxclass" : "newobj",
																	"numinlets" : 1,
																	"numoutlets" : 1,
																	"outlettype" : [ "" ],
																	"patching_rect" : [ 50.0, 150.0, 46.0, 18.0 ],
																	"text" : "pcontrol"
																}

															}
, 															{
																"box" : 																{
																	"comment" : "",
																	"id" : "obj-134",
																	"maxclass" : "inlet",
																	"numinlets" : 0,
																	"numoutlets" : 1,
																	"outlettype" : [ "" ],
																	"patching_rect" : [ 50.0, 40.0, 25.0, 25.0 ]
																}

															}
 ],
														"lines" : [ 															{
																"patchline" : 																{
																	"destination" : [ "obj-4", 0 ],
																	"disabled" : 0,
																	"hidden" : 0,
																	"source" : [ "obj-1", 0 ]
																}

															}
, 															{
																"patchline" : 																{
																	"destination" : [ "obj-1", 0 ],
																	"disabled" : 0,
																	"hidden" : 0,
																	"source" : [ "obj-134", 0 ]
																}

															}
, 															{
																"patchline" : 																{
																	"destination" : [ "obj-5", 0 ],
																	"disabled" : 0,
																	"hidden" : 0,
																	"source" : [ "obj-4", 0 ]
																}

															}
, 															{
																"patchline" : 																{
																	"destination" : [ "obj-3", 0 ],
																	"disabled" : 0,
																	"hidden" : 0,
																	"source" : [ "obj-5", 0 ]
																}

															}
 ],
														"dependency_cache" : [  ]
													}
,
													"patching_rect" : [ 35.0, 250.0, 68.0, 18.0 ],
													"saved_object_attributes" : 													{
														"default_fontface" : 0,
														"digest" : "",
														"default_fontname" : "Arial",
														"fontname" : "Arial",
														"tags" : "",
														"default_fontsize" : 10.0,
														"globalpatchername" : "",
														"description" : "",
														"fontface" : 0,
														"fontsize" : 10.0
													}
,
													"text" : "p load_patch"
												}

											}
, 											{
												"box" : 												{
													"fontface" : 3,
													"fontname" : "Arial",
													"fontsize" : 16.0,
													"id" : "obj-2",
													"maxclass" : "comment",
													"numinlets" : 1,
													"numoutlets" : 0,
													"patching_rect" : [ 0.0, 0.0, 383.0, 25.0 ],
													"presentation" : 1,
													"presentation_rect" : [ 0.0, 0.0, 296.0, 25.0 ],
													"text" : "USER: Utilities Clippings — Overview"
												}

											}
, 											{
												"box" : 												{
													"angle" : 270.0,
													"grad1" : [ 0.65098, 0.65098, 0.65098, 1.0 ],
													"grad2" : [ 1.0, 0.99828, 0.995128, 1.0 ],
													"id" : "obj-47",
													"ignoreclick" : 1,
													"maxclass" : "panel",
													"mode" : 1,
													"numinlets" : 1,
													"numoutlets" : 0,
													"patching_rect" : [ 0.0, 0.0, 1440.0, 35.0 ],
													"presentation" : 1,
													"presentation_rect" : [ 0.0, 0.0, 296.0, 165.0 ],
													"rounded" : 0
												}

											}
, 											{
												"box" : 												{
													"comment" : "",
													"id" : "obj-1",
													"maxclass" : "inlet",
													"numinlets" : 0,
													"numoutlets" : 1,
													"outlettype" : [ "" ],
													"patching_rect" : [ 0.0, 40.0, 25.0, 25.0 ]
												}

											}
 ],
										"lines" : [ 											{
												"patchline" : 												{
													"destination" : [ "obj-135", 0 ],
													"disabled" : 0,
													"hidden" : 0,
													"source" : [ "obj-26", 0 ]
												}

											}
, 											{
												"patchline" : 												{
													"destination" : [ "obj-135", 0 ],
													"disabled" : 0,
													"hidden" : 0,
													"source" : [ "obj-3", 0 ]
												}

											}
, 											{
												"patchline" : 												{
													"destination" : [ "obj-135", 0 ],
													"disabled" : 0,
													"hidden" : 0,
													"source" : [ "obj-4", 0 ]
												}

											}
, 											{
												"patchline" : 												{
													"destination" : [ "obj-135", 0 ],
													"disabled" : 0,
													"hidden" : 0,
													"source" : [ "obj-5", 0 ]
												}

											}
 ],
										"dependency_cache" : [  ]
									}
,
									"patching_rect" : [ 590.0, 148.0, 51.0, 18.0 ],
									"saved_object_attributes" : 									{
										"default_fontface" : 0,
										"digest" : "",
										"default_fontname" : "Arial",
										"fontname" : "Arial",
										"tags" : "",
										"default_fontsize" : 10.0,
										"globalpatchername" : "",
										"description" : "",
										"fontface" : 0,
										"fontsize" : 10.0
									}
,
									"text" : "p Utilities"
								}

							}
, 							{
								"box" : 								{
									"fontname" : "Arial",
									"fontsize" : 10.0,
									"id" : "obj-12",
									"maxclass" : "newobj",
									"numinlets" : 1,
									"numoutlets" : 1,
									"outlettype" : [ "open" ],
									"patching_rect" : [ 210.0, 92.0, 38.0, 18.0 ],
									"text" : "t open"
								}

							}
, 							{
								"box" : 								{
									"fontname" : "Arial",
									"fontsize" : 10.0,
									"id" : "obj-13",
									"maxclass" : "newobj",
									"numinlets" : 1,
									"numoutlets" : 1,
									"outlettype" : [ "" ],
									"patching_rect" : [ 210.0, 115.0, 46.0, 18.0 ],
									"text" : "pcontrol"
								}

							}
, 							{
								"box" : 								{
									"fontname" : "Arial",
									"fontsize" : 10.0,
									"id" : "obj-14",
									"maxclass" : "newobj",
									"numinlets" : 1,
									"numoutlets" : 0,
									"patcher" : 									{
										"fileversion" : 1,
										"appversion" : 										{
											"major" : 6,
											"minor" : 0,
											"revision" : 5
										}
,
										"rect" : [ 321.0, 113.0, 305.0, 246.0 ],
										"bglocked" : 0,
										"openinpresentation" : 1,
										"default_fontsize" : 10.0,
										"default_fontface" : 0,
										"default_fontname" : "Arial",
										"gridonopen" : 0,
										"gridsize" : [ 5.0, 5.0 ],
										"gridsnaponopen" : 0,
										"statusbarvisible" : 2,
										"toolbarvisible" : 1,
										"boxanimatetime" : 200,
										"imprint" : 0,
										"enablehscroll" : 1,
										"enablevscroll" : 1,
										"devicewidth" : 0.0,
										"description" : "",
										"digest" : "",
										"tags" : "",
										"boxes" : [ 											{
												"box" : 												{
													"bgcolor" : [ 0.65098, 0.65098, 0.65098, 1.0 ],
													"fontface" : 3,
													"fontname" : "Arial",
													"fontsize" : 12.0,
													"id" : "obj-19",
													"maxclass" : "message",
													"numinlets" : 2,
													"numoutlets" : 1,
													"outlettype" : [ "" ],
													"patching_rect" : [ 180.0, 323.0, 134.0, 18.0 ],
													"presentation" : 1,
													"presentation_rect" : [ 135.0, 165.0, 126.0, 18.0 ],
													"text" : "mix or pan 2 signals",
													"textcolor" : [ 0.901961, 0.901961, 0.901961, 1.0 ]
												}

											}
, 											{
												"box" : 												{
													"bgcolor" : [ 0.65098, 0.65098, 0.65098, 1.0 ],
													"fontface" : 3,
													"fontname" : "Arial",
													"fontsize" : 12.0,
													"id" : "obj-17",
													"maxclass" : "message",
													"numinlets" : 2,
													"numoutlets" : 1,
													"outlettype" : [ "" ],
													"patching_rect" : [ 165.0, 305.0, 134.0, 18.0 ],
													"presentation" : 1,
													"presentation_rect" : [ 135.0, 140.0, 134.0, 18.0 ],
													"text" : "enveloped pulses",
													"textcolor" : [ 0.901961, 0.901961, 0.901961, 1.0 ]
												}

											}
, 											{
												"box" : 												{
													"bgcolor" : [ 0.65098, 0.65098, 0.65098, 1.0 ],
													"fontface" : 3,
													"fontname" : "Arial",
													"fontsize" : 12.0,
													"id" : "obj-16",
													"maxclass" : "message",
													"numinlets" : 2,
													"numoutlets" : 1,
													"outlettype" : [ "" ],
													"patching_rect" : [ 124.5, 235.0, 134.0, 18.0 ],
													"presentation" : 1,
													"presentation_rect" : [ 135.0, 90.0, 134.0, 18.0 ],
													"text" : "quick sound buffer",
													"textcolor" : [ 0.901961, 0.901961, 0.901961, 1.0 ]
												}

											}
, 											{
												"box" : 												{
													"fontface" : 3,
													"fontname" : "Arial",
													"fontsize" : 10.0,
													"id" : "obj-15",
													"maxclass" : "comment",
													"numinlets" : 1,
													"numoutlets" : 0,
													"patching_rect" : [ 115.0, 40.0, 94.0, 18.0 ],
													"presentation" : 1,
													"presentation_rect" : [ 10.0, 40.0, 46.0, 18.0 ],
													"text" : "MAX"
												}

											}
, 											{
												"box" : 												{
													"fontface" : 3,
													"fontname" : "Arial",
													"fontsize" : 10.0,
													"id" : "obj-13",
													"maxclass" : "comment",
													"numinlets" : 1,
													"numoutlets" : 0,
													"patching_rect" : [ 150.0, 278.0, 94.0, 18.0 ],
													"presentation" : 1,
													"presentation_rect" : [ 135.0, 115.0, 46.0, 18.0 ],
													"text" : "GEN~"
												}

											}
, 											{
												"box" : 												{
													"fontface" : 3,
													"fontname" : "Arial",
													"fontsize" : 10.0,
													"id" : "obj-126",
													"maxclass" : "comment",
													"numinlets" : 1,
													"numoutlets" : 0,
													"patching_rect" : [ 124.5, 213.0, 94.0, 18.0 ],
													"presentation" : 1,
													"presentation_rect" : [ 135.0, 40.0, 46.0, 18.0 ],
													"text" : "MSP"
												}

											}
, 											{
												"box" : 												{
													"bgcolor" : [ 0.65098, 0.65098, 0.65098, 1.0 ],
													"fontface" : 3,
													"fontname" : "Arial",
													"fontsize" : 12.0,
													"id" : "obj-14",
													"maxclass" : "message",
													"numinlets" : 2,
													"numoutlets" : 1,
													"outlettype" : [ "" ],
													"patching_rect" : [ 140.0, 260.0, 134.0, 18.0 ],
													"presentation" : 1,
													"presentation_rect" : [ 135.0, 65.0, 134.0, 18.0 ],
													"text" : "quick envelope buffer",
													"textcolor" : [ 0.901961, 0.901961, 0.901961, 1.0 ]
												}

											}
, 											{
												"box" : 												{
													"bgcolor" : [ 0.65098, 0.65098, 0.65098, 1.0 ],
													"fontface" : 3,
													"fontname" : "Arial",
													"fontsize" : 12.0,
													"id" : "obj-10",
													"maxclass" : "message",
													"numinlets" : 2,
													"numoutlets" : 1,
													"outlettype" : [ "" ],
													"patching_rect" : [ 106.0, 168.0, 81.0, 18.0 ],
													"presentation" : 1,
													"presentation_rect" : [ 10.0, 215.0, 115.0, 18.0 ],
													"text" : "quick table",
													"textcolor" : [ 0.901961, 0.901961, 0.901961, 1.0 ]
												}

											}
, 											{
												"box" : 												{
													"bgcolor" : [ 0.65098, 0.65098, 0.65098, 1.0 ],
													"fontface" : 3,
													"fontname" : "Arial",
													"fontsize" : 12.0,
													"id" : "obj-7",
													"maxclass" : "message",
													"numinlets" : 2,
													"numoutlets" : 1,
													"outlettype" : [ "" ],
													"patching_rect" : [ 115.0, 195.0, 96.0, 18.0 ],
													"presentation" : 1,
													"presentation_rect" : [ 10.0, 140.0, 115.0, 18.0 ],
													"text" : "quick pattr",
													"textcolor" : [ 0.901961, 0.901961, 0.901961, 1.0 ]
												}

											}
, 											{
												"box" : 												{
													"bgcolor" : [ 0.65098, 0.65098, 0.65098, 1.0 ],
													"fontface" : 3,
													"fontname" : "Arial",
													"fontsize" : 12.0,
													"id" : "obj-6",
													"maxclass" : "message",
													"numinlets" : 2,
													"numoutlets" : 1,
													"outlettype" : [ "" ],
													"patching_rect" : [ 92.0, 145.0, 99.0, 18.0 ],
													"presentation" : 1,
													"presentation_rect" : [ 10.0, 115.0, 115.0, 18.0 ],
													"text" : "quick note map",
													"textcolor" : [ 0.901961, 0.901961, 0.901961, 1.0 ]
												}

											}
, 											{
												"box" : 												{
													"bgcolor" : [ 0.65098, 0.65098, 0.65098, 1.0 ],
													"fontface" : 3,
													"fontname" : "Arial",
													"fontsize" : 12.0,
													"id" : "obj-5",
													"maxclass" : "message",
													"numinlets" : 2,
													"numoutlets" : 1,
													"outlettype" : [ "" ],
													"patching_rect" : [ 75.0, 120.0, 81.0, 18.0 ],
													"presentation" : 1,
													"presentation_rect" : [ 10.0, 190.0, 115.0, 18.0 ],
													"text" : "quick scale",
													"textcolor" : [ 0.901961, 0.901961, 0.901961, 1.0 ]
												}

											}
, 											{
												"box" : 												{
													"bgcolor" : [ 0.65098, 0.65098, 0.65098, 1.0 ],
													"fontface" : 3,
													"fontname" : "Arial",
													"fontsize" : 12.0,
													"id" : "obj-4",
													"maxclass" : "message",
													"numinlets" : 2,
													"numoutlets" : 1,
													"outlettype" : [ "" ],
													"patching_rect" : [ 60.0, 95.0, 113.0, 18.0 ],
													"presentation" : 1,
													"presentation_rect" : [ 10.0, 165.0, 115.0, 18.0 ],
													"text" : "quick print",
													"textcolor" : [ 0.901961, 0.901961, 0.901961, 1.0 ]
												}

											}
, 											{
												"box" : 												{
													"bgcolor" : [ 0.65098, 0.65098, 0.65098, 1.0 ],
													"fontface" : 3,
													"fontname" : "Arial",
													"fontsize" : 12.0,
													"id" : "obj-3",
													"maxclass" : "message",
													"numinlets" : 2,
													"numoutlets" : 1,
													"outlettype" : [ "" ],
													"patching_rect" : [ 45.0, 70.0, 106.0, 18.0 ],
													"presentation" : 1,
													"presentation_rect" : [ 10.0, 90.0, 115.0, 18.0 ],
													"text" : "quick multislider",
													"textcolor" : [ 0.901961, 0.901961, 0.901961, 1.0 ]
												}

											}
, 											{
												"box" : 												{
													"bgcolor" : [ 0.65098, 0.65098, 0.65098, 1.0 ],
													"fontface" : 3,
													"fontname" : "Arial",
													"fontsize" : 12.0,
													"id" : "obj-26",
													"maxclass" : "message",
													"numinlets" : 2,
													"numoutlets" : 1,
													"outlettype" : [ "" ],
													"patching_rect" : [ 35.0, 40.0, 79.0, 18.0 ],
													"presentation" : 1,
													"presentation_rect" : [ 10.0, 65.0, 115.0, 18.0 ],
													"text" : "quick chord",
													"textcolor" : [ 0.901961, 0.901961, 0.901961, 1.0 ]
												}

											}
, 											{
												"box" : 												{
													"fontname" : "Arial",
													"fontsize" : 10.0,
													"hidden" : 1,
													"id" : "obj-135",
													"maxclass" : "newobj",
													"numinlets" : 1,
													"numoutlets" : 0,
													"patcher" : 													{
														"fileversion" : 1,
														"appversion" : 														{
															"major" : 6,
															"minor" : 0,
															"revision" : 5
														}
,
														"rect" : [ 25.0, 69.0, 640.0, 480.0 ],
														"bglocked" : 0,
														"openinpresentation" : 0,
														"default_fontsize" : 10.0,
														"default_fontface" : 0,
														"default_fontname" : "Arial",
														"gridonopen" : 0,
														"gridsize" : [ 5.0, 5.0 ],
														"gridsnaponopen" : 0,
														"statusbarvisible" : 2,
														"toolbarvisible" : 1,
														"boxanimatetime" : 200,
														"imprint" : 0,
														"enablehscroll" : 1,
														"enablevscroll" : 1,
														"devicewidth" : 0.0,
														"description" : "",
														"digest" : "",
														"tags" : "",
														"boxes" : [ 															{
																"box" : 																{
																	"fontname" : "Arial",
																	"fontsize" : 10.0,
																	"id" : "obj-1",
																	"maxclass" : "newobj",
																	"numinlets" : 1,
																	"numoutlets" : 1,
																	"outlettype" : [ "" ],
																	"patching_rect" : [ 50.0, 75.0, 51.0, 18.0 ],
																	"text" : "tosymbol"
																}

															}
, 															{
																"box" : 																{
																	"fontname" : "Arial",
																	"fontsize" : 10.0,
																	"id" : "obj-5",
																	"maxclass" : "newobj",
																	"numinlets" : 1,
																	"numoutlets" : 1,
																	"outlettype" : [ "" ],
																	"patching_rect" : [ 50.0, 125.0, 69.0, 18.0 ],
																	"text" : "prepend load"
																}

															}
, 															{
																"box" : 																{
																	"fontname" : "Arial",
																	"fontsize" : 10.0,
																	"id" : "obj-4",
																	"maxclass" : "newobj",
																	"numinlets" : 2,
																	"numoutlets" : 2,
																	"outlettype" : [ "", "" ],
																	"patching_rect" : [ 50.0, 100.0, 114.0, 18.0 ],
																	"text" : "combine name .maxpat"
																}

															}
, 															{
																"box" : 																{
																	"fontname" : "Arial",
																	"fontsize" : 10.0,
																	"id" : "obj-3",
																	"maxclass" : "newobj",
																	"numinlets" : 1,
																	"numoutlets" : 1,
																	"outlettype" : [ "" ],
																	"patching_rect" : [ 50.0, 150.0, 46.0, 18.0 ],
																	"text" : "pcontrol"
																}

															}
, 															{
																"box" : 																{
																	"comment" : "",
																	"id" : "obj-134",
																	"maxclass" : "inlet",
																	"numinlets" : 0,
																	"numoutlets" : 1,
																	"outlettype" : [ "" ],
																	"patching_rect" : [ 50.0, 40.0, 25.0, 25.0 ]
																}

															}
 ],
														"lines" : [ 															{
																"patchline" : 																{
																	"destination" : [ "obj-4", 0 ],
																	"disabled" : 0,
																	"hidden" : 0,
																	"source" : [ "obj-1", 0 ]
																}

															}
, 															{
																"patchline" : 																{
																	"destination" : [ "obj-1", 0 ],
																	"disabled" : 0,
																	"hidden" : 0,
																	"source" : [ "obj-134", 0 ]
																}

															}
, 															{
																"patchline" : 																{
																	"destination" : [ "obj-5", 0 ],
																	"disabled" : 0,
																	"hidden" : 0,
																	"source" : [ "obj-4", 0 ]
																}

															}
, 															{
																"patchline" : 																{
																	"destination" : [ "obj-3", 0 ],
																	"disabled" : 0,
																	"hidden" : 0,
																	"source" : [ "obj-5", 0 ]
																}

															}
 ],
														"dependency_cache" : [  ]
													}
,
													"patching_rect" : [ 35.0, 385.0, 68.0, 18.0 ],
													"saved_object_attributes" : 													{
														"default_fontface" : 0,
														"digest" : "",
														"default_fontname" : "Arial",
														"fontname" : "Arial",
														"tags" : "",
														"default_fontsize" : 10.0,
														"globalpatchername" : "",
														"description" : "",
														"fontface" : 0,
														"fontsize" : 10.0
													}
,
													"text" : "p load_patch"
												}

											}
, 											{
												"box" : 												{
													"fontface" : 3,
													"fontname" : "Arial",
													"fontsize" : 16.0,
													"id" : "obj-2",
													"maxclass" : "comment",
													"numinlets" : 1,
													"numoutlets" : 0,
													"patching_rect" : [ 0.0, 0.0, 383.0, 25.0 ],
													"presentation" : 1,
													"presentation_rect" : [ 0.0, 0.0, 305.0, 25.0 ],
													"text" : "USER: Quickies Clippings — Overview"
												}

											}
, 											{
												"box" : 												{
													"angle" : 270.0,
													"grad1" : [ 0.65098, 0.65098, 0.65098, 1.0 ],
													"grad2" : [ 1.0, 0.99828, 0.995128, 1.0 ],
													"id" : "obj-47",
													"ignoreclick" : 1,
													"maxclass" : "panel",
													"mode" : 1,
													"numinlets" : 1,
													"numoutlets" : 0,
													"patching_rect" : [ 0.0, 0.0, 1440.0, 35.0 ],
													"presentation" : 1,
													"presentation_rect" : [ 0.0, 0.0, 305.0, 245.0 ],
													"rounded" : 0
												}

											}
, 											{
												"box" : 												{
													"comment" : "",
													"id" : "obj-1",
													"maxclass" : "inlet",
													"numinlets" : 0,
													"numoutlets" : 1,
													"outlettype" : [ "" ],
													"patching_rect" : [ 0.0, 40.0, 25.0, 25.0 ]
												}

											}
 ],
										"lines" : [ 											{
												"patchline" : 												{
													"destination" : [ "obj-135", 0 ],
													"disabled" : 0,
													"hidden" : 0,
													"source" : [ "obj-10", 0 ]
												}

											}
, 											{
												"patchline" : 												{
													"destination" : [ "obj-135", 0 ],
													"disabled" : 0,
													"hidden" : 0,
													"source" : [ "obj-14", 0 ]
												}

											}
, 											{
												"patchline" : 												{
													"destination" : [ "obj-135", 0 ],
													"disabled" : 0,
													"hidden" : 0,
													"source" : [ "obj-16", 0 ]
												}

											}
, 											{
												"patchline" : 												{
													"destination" : [ "obj-135", 0 ],
													"disabled" : 0,
													"hidden" : 0,
													"source" : [ "obj-17", 0 ]
												}

											}
, 											{
												"patchline" : 												{
													"destination" : [ "obj-135", 0 ],
													"disabled" : 0,
													"hidden" : 0,
													"source" : [ "obj-19", 0 ]
												}

											}
, 											{
												"patchline" : 												{
													"destination" : [ "obj-135", 0 ],
													"disabled" : 0,
													"hidden" : 0,
													"source" : [ "obj-26", 0 ]
												}

											}
, 											{
												"patchline" : 												{
													"destination" : [ "obj-135", 0 ],
													"disabled" : 0,
													"hidden" : 0,
													"source" : [ "obj-3", 0 ]
												}

											}
, 											{
												"patchline" : 												{
													"destination" : [ "obj-135", 0 ],
													"disabled" : 0,
													"hidden" : 0,
													"source" : [ "obj-4", 0 ]
												}

											}
, 											{
												"patchline" : 												{
													"destination" : [ "obj-135", 0 ],
													"disabled" : 0,
													"hidden" : 0,
													"source" : [ "obj-5", 0 ]
												}

											}
, 											{
												"patchline" : 												{
													"destination" : [ "obj-135", 0 ],
													"disabled" : 0,
													"hidden" : 0,
													"source" : [ "obj-6", 0 ]
												}

											}
, 											{
												"patchline" : 												{
													"destination" : [ "obj-135", 0 ],
													"disabled" : 0,
													"hidden" : 0,
													"source" : [ "obj-7", 0 ]
												}

											}
 ],
										"dependency_cache" : [  ]
									}
,
									"patching_rect" : [ 210.0, 140.0, 64.0, 18.0 ],
									"saved_object_attributes" : 									{
										"default_fontface" : 0,
										"digest" : "",
										"default_fontname" : "Arial",
										"fontname" : "Arial",
										"tags" : "",
										"default_fontsize" : 10.0,
										"globalpatchername" : "",
										"description" : "",
										"fontface" : 0,
										"fontsize" : 10.0
									}
,
									"text" : "p Quickies"
								}

							}
, 							{
								"box" : 								{
									"fontname" : "Arial",
									"fontsize" : 10.0,
									"id" : "obj-11",
									"maxclass" : "newobj",
									"numinlets" : 1,
									"numoutlets" : 1,
									"outlettype" : [ "open" ],
									"patching_rect" : [ 95.0, 92.0, 38.0, 18.0 ],
									"text" : "t open"
								}

							}
, 							{
								"box" : 								{
									"fontname" : "Arial",
									"fontsize" : 10.0,
									"id" : "obj-10",
									"maxclass" : "newobj",
									"numinlets" : 1,
									"numoutlets" : 1,
									"outlettype" : [ "" ],
									"patching_rect" : [ 95.0, 115.0, 46.0, 18.0 ],
									"text" : "pcontrol"
								}

							}
, 							{
								"box" : 								{
									"fontname" : "Arial",
									"fontsize" : 10.0,
									"id" : "obj-9",
									"maxclass" : "newobj",
									"numinlets" : 1,
									"numoutlets" : 0,
									"patcher" : 									{
										"fileversion" : 1,
										"appversion" : 										{
											"major" : 6,
											"minor" : 0,
											"revision" : 5
										}
,
										"rect" : [ 25.0, 69.0, 341.0, 206.0 ],
										"bglocked" : 0,
										"openinpresentation" : 1,
										"default_fontsize" : 10.0,
										"default_fontface" : 0,
										"default_fontname" : "Arial",
										"gridonopen" : 0,
										"gridsize" : [ 5.0, 5.0 ],
										"gridsnaponopen" : 0,
										"statusbarvisible" : 2,
										"toolbarvisible" : 1,
										"boxanimatetime" : 200,
										"imprint" : 0,
										"enablehscroll" : 1,
										"enablevscroll" : 1,
										"devicewidth" : 0.0,
										"description" : "",
										"digest" : "",
										"tags" : "",
										"boxes" : [ 											{
												"box" : 												{
													"bgcolor" : [ 0.65098, 0.65098, 0.65098, 1.0 ],
													"fontface" : 3,
													"fontname" : "Arial",
													"fontsize" : 12.0,
													"id" : "obj-7",
													"maxclass" : "message",
													"numinlets" : 2,
													"numoutlets" : 1,
													"outlettype" : [ "" ],
													"patching_rect" : [ 105.0, 156.0, 96.0, 18.0 ],
													"presentation" : 1,
													"presentation_rect" : [ 86.0, 120.0, 164.0, 18.0 ],
													"text" : "- piece output~",
													"textcolor" : [ 0.901961, 0.901961, 0.901961, 1.0 ]
												}

											}
, 											{
												"box" : 												{
													"bgcolor" : [ 0.65098, 0.65098, 0.65098, 1.0 ],
													"fontface" : 3,
													"fontname" : "Arial",
													"fontsize" : 12.0,
													"id" : "obj-6",
													"maxclass" : "message",
													"numinlets" : 2,
													"numoutlets" : 1,
													"outlettype" : [ "" ],
													"patching_rect" : [ 92.0, 138.0, 88.0, 18.0 ],
													"presentation" : 1,
													"presentation_rect" : [ 86.0, 95.0, 164.0, 18.0 ],
													"text" : "- piece input~",
													"textcolor" : [ 0.901961, 0.901961, 0.901961, 1.0 ]
												}

											}
, 											{
												"box" : 												{
													"bgcolor" : [ 0.65098, 0.65098, 0.65098, 1.0 ],
													"fontface" : 3,
													"fontname" : "Arial",
													"fontsize" : 12.0,
													"id" : "obj-5",
													"maxclass" : "message",
													"numinlets" : 2,
													"numoutlets" : 1,
													"outlettype" : [ "" ],
													"patching_rect" : [ 75.0, 120.0, 81.0, 18.0 ],
													"presentation" : 1,
													"presentation_rect" : [ 86.0, 170.0, 164.0, 18.0 ],
													"text" : "-insert piece",
													"textcolor" : [ 0.901961, 0.901961, 0.901961, 1.0 ]
												}

											}
, 											{
												"box" : 												{
													"bgcolor" : [ 0.65098, 0.65098, 0.65098, 1.0 ],
													"fontface" : 3,
													"fontname" : "Arial",
													"fontsize" : 12.0,
													"id" : "obj-4",
													"maxclass" : "message",
													"numinlets" : 2,
													"numoutlets" : 1,
													"outlettype" : [ "" ],
													"patching_rect" : [ 60.0, 95.0, 113.0, 18.0 ],
													"presentation" : 1,
													"presentation_rect" : [ 86.0, 145.0, 164.0, 18.0 ],
													"text" : "-insert instrument",
													"textcolor" : [ 0.901961, 0.901961, 0.901961, 1.0 ]
												}

											}
, 											{
												"box" : 												{
													"bgcolor" : [ 0.65098, 0.65098, 0.65098, 1.0 ],
													"fontface" : 3,
													"fontname" : "Arial",
													"fontsize" : 12.0,
													"id" : "obj-3",
													"maxclass" : "message",
													"numinlets" : 2,
													"numoutlets" : 1,
													"outlettype" : [ "" ],
													"patching_rect" : [ 45.0, 70.0, 80.0, 18.0 ],
													"presentation" : 1,
													"presentation_rect" : [ 86.0, 70.0, 164.0, 18.0 ],
													"text" : "-api output~",
													"textcolor" : [ 0.901961, 0.901961, 0.901961, 1.0 ]
												}

											}
, 											{
												"box" : 												{
													"bgcolor" : [ 0.65098, 0.65098, 0.65098, 1.0 ],
													"fontface" : 3,
													"fontname" : "Arial",
													"fontsize" : 12.0,
													"id" : "obj-26",
													"maxclass" : "message",
													"numinlets" : 2,
													"numoutlets" : 1,
													"outlettype" : [ "" ],
													"patching_rect" : [ 35.0, 40.0, 72.0, 18.0 ],
													"presentation" : 1,
													"presentation_rect" : [ 86.0, 45.0, 164.0, 18.0 ],
													"text" : "-api input~",
													"textcolor" : [ 0.901961, 0.901961, 0.901961, 1.0 ]
												}

											}
, 											{
												"box" : 												{
													"fontname" : "Arial",
													"fontsize" : 10.0,
													"hidden" : 1,
													"id" : "obj-135",
													"maxclass" : "newobj",
													"numinlets" : 1,
													"numoutlets" : 0,
													"patcher" : 													{
														"fileversion" : 1,
														"appversion" : 														{
															"major" : 6,
															"minor" : 0,
															"revision" : 5
														}
,
														"rect" : [ 25.0, 69.0, 640.0, 480.0 ],
														"bglocked" : 0,
														"openinpresentation" : 0,
														"default_fontsize" : 10.0,
														"default_fontface" : 0,
														"default_fontname" : "Arial",
														"gridonopen" : 0,
														"gridsize" : [ 5.0, 5.0 ],
														"gridsnaponopen" : 0,
														"statusbarvisible" : 2,
														"toolbarvisible" : 1,
														"boxanimatetime" : 200,
														"imprint" : 0,
														"enablehscroll" : 1,
														"enablevscroll" : 1,
														"devicewidth" : 0.0,
														"description" : "",
														"digest" : "",
														"tags" : "",
														"boxes" : [ 															{
																"box" : 																{
																	"fontname" : "Arial",
																	"fontsize" : 10.0,
																	"id" : "obj-1",
																	"maxclass" : "newobj",
																	"numinlets" : 1,
																	"numoutlets" : 1,
																	"outlettype" : [ "" ],
																	"patching_rect" : [ 50.0, 75.0, 51.0, 18.0 ],
																	"text" : "tosymbol"
																}

															}
, 															{
																"box" : 																{
																	"fontname" : "Arial",
																	"fontsize" : 10.0,
																	"id" : "obj-5",
																	"maxclass" : "newobj",
																	"numinlets" : 1,
																	"numoutlets" : 1,
																	"outlettype" : [ "" ],
																	"patching_rect" : [ 50.0, 125.0, 69.0, 18.0 ],
																	"text" : "prepend load"
																}

															}
, 															{
																"box" : 																{
																	"fontname" : "Arial",
																	"fontsize" : 10.0,
																	"id" : "obj-4",
																	"maxclass" : "newobj",
																	"numinlets" : 2,
																	"numoutlets" : 2,
																	"outlettype" : [ "", "" ],
																	"patching_rect" : [ 50.0, 100.0, 114.0, 18.0 ],
																	"text" : "combine name .maxpat"
																}

															}
, 															{
																"box" : 																{
																	"fontname" : "Arial",
																	"fontsize" : 10.0,
																	"id" : "obj-3",
																	"maxclass" : "newobj",
																	"numinlets" : 1,
																	"numoutlets" : 1,
																	"outlettype" : [ "" ],
																	"patching_rect" : [ 50.0, 150.0, 46.0, 18.0 ],
																	"text" : "pcontrol"
																}

															}
, 															{
																"box" : 																{
																	"comment" : "",
																	"id" : "obj-134",
																	"maxclass" : "inlet",
																	"numinlets" : 0,
																	"numoutlets" : 1,
																	"outlettype" : [ "" ],
																	"patching_rect" : [ 50.0, 40.0, 25.0, 25.0 ]
																}

															}
 ],
														"lines" : [ 															{
																"patchline" : 																{
																	"destination" : [ "obj-4", 0 ],
																	"disabled" : 0,
																	"hidden" : 0,
																	"source" : [ "obj-1", 0 ]
																}

															}
, 															{
																"patchline" : 																{
																	"destination" : [ "obj-1", 0 ],
																	"disabled" : 0,
																	"hidden" : 0,
																	"source" : [ "obj-134", 0 ]
																}

															}
, 															{
																"patchline" : 																{
																	"destination" : [ "obj-5", 0 ],
																	"disabled" : 0,
																	"hidden" : 0,
																	"source" : [ "obj-4", 0 ]
																}

															}
, 															{
																"patchline" : 																{
																	"destination" : [ "obj-3", 0 ],
																	"disabled" : 0,
																	"hidden" : 0,
																	"source" : [ "obj-5", 0 ]
																}

															}
 ],
														"dependency_cache" : [  ]
													}
,
													"patching_rect" : [ 35.0, 185.0, 68.0, 18.0 ],
													"saved_object_attributes" : 													{
														"default_fontface" : 0,
														"digest" : "",
														"default_fontname" : "Arial",
														"fontname" : "Arial",
														"tags" : "",
														"default_fontsize" : 10.0,
														"globalpatchername" : "",
														"description" : "",
														"fontface" : 0,
														"fontsize" : 10.0
													}
,
													"text" : "p load_patch"
												}

											}
, 											{
												"box" : 												{
													"fontface" : 3,
													"fontname" : "Arial",
													"fontsize" : 16.0,
													"id" : "obj-2",
													"maxclass" : "comment",
													"numinlets" : 1,
													"numoutlets" : 0,
													"patching_rect" : [ 0.0, 0.0, 383.0, 25.0 ],
													"presentation" : 1,
													"presentation_rect" : [ 0.0, 0.0, 341.0, 25.0 ],
													"text" : "USER: API exclusive Clippings — Overview"
												}

											}
, 											{
												"box" : 												{
													"angle" : 270.0,
													"grad1" : [ 0.65098, 0.65098, 0.65098, 1.0 ],
													"grad2" : [ 1.0, 0.99828, 0.995128, 1.0 ],
													"id" : "obj-47",
													"ignoreclick" : 1,
													"maxclass" : "panel",
													"mode" : 1,
													"numinlets" : 1,
													"numoutlets" : 0,
													"patching_rect" : [ 0.0, 0.0, 1440.0, 35.0 ],
													"presentation" : 1,
													"presentation_rect" : [ 0.0, 0.0, 341.0, 205.0 ],
													"rounded" : 0
												}

											}
, 											{
												"box" : 												{
													"comment" : "",
													"id" : "obj-1",
													"maxclass" : "inlet",
													"numinlets" : 0,
													"numoutlets" : 1,
													"outlettype" : [ "" ],
													"patching_rect" : [ 0.0, 40.0, 25.0, 25.0 ]
												}

											}
 ],
										"lines" : [ 											{
												"patchline" : 												{
													"destination" : [ "obj-135", 0 ],
													"disabled" : 0,
													"hidden" : 0,
													"source" : [ "obj-26", 0 ]
												}

											}
, 											{
												"patchline" : 												{
													"destination" : [ "obj-135", 0 ],
													"disabled" : 0,
													"hidden" : 0,
													"source" : [ "obj-3", 0 ]
												}

											}
, 											{
												"patchline" : 												{
													"destination" : [ "obj-135", 0 ],
													"disabled" : 0,
													"hidden" : 0,
													"source" : [ "obj-4", 0 ]
												}

											}
, 											{
												"patchline" : 												{
													"destination" : [ "obj-135", 0 ],
													"disabled" : 0,
													"hidden" : 0,
													"source" : [ "obj-5", 0 ]
												}

											}
, 											{
												"patchline" : 												{
													"destination" : [ "obj-135", 0 ],
													"disabled" : 0,
													"hidden" : 0,
													"source" : [ "obj-6", 0 ]
												}

											}
, 											{
												"patchline" : 												{
													"destination" : [ "obj-135", 0 ],
													"disabled" : 0,
													"hidden" : 0,
													"source" : [ "obj-7", 0 ]
												}

											}
 ],
										"dependency_cache" : [  ]
									}
,
									"patching_rect" : [ 95.0, 140.0, 86.0, 18.0 ],
									"saved_object_attributes" : 									{
										"default_fontface" : 0,
										"digest" : "",
										"default_fontname" : "Arial",
										"fontname" : "Arial",
										"tags" : "",
										"default_fontsize" : 10.0,
										"globalpatchername" : "",
										"description" : "",
										"fontface" : 0,
										"fontsize" : 10.0
									}
,
									"text" : "p \"API exclusive\""
								}

							}
, 							{
								"box" : 								{
									"bgcolor" : [ 0.901961, 0.901961, 0.901961, 1.0 ],
									"bgovercolor" : [ 0.65098, 0.65098, 0.65098, 1.0 ],
									"bordercolor" : [ 0.65098, 0.65098, 0.65098, 1.0 ],
									"borderoncolor" : [ 0.65098, 0.65098, 0.65098, 1.0 ],
									"fontface" : 3,
									"fontname" : "Arial",
									"fontsize" : 14.0,
									"id" : "obj-7",
									"maxclass" : "textbutton",
									"numinlets" : 1,
									"numoutlets" : 3,
									"outlettype" : [ "", "", "int" ],
									"parameter_enable" : 0,
									"patching_rect" : [ 590.0, 65.0, 100.0, 20.0 ],
									"presentation" : 1,
									"presentation_rect" : [ 40.0, 285.0, 160.0, 50.0 ],
									"rounded" : 6.0,
									"text" : "Utilities"
								}

							}
, 							{
								"box" : 								{
									"bgcolor" : [ 0.901961, 0.901961, 0.901961, 1.0 ],
									"bgovercolor" : [ 0.65098, 0.65098, 0.65098, 1.0 ],
									"bordercolor" : [ 0.65098, 0.65098, 0.65098, 1.0 ],
									"borderoncolor" : [ 0.65098, 0.65098, 0.65098, 1.0 ],
									"fontface" : 3,
									"fontname" : "Arial",
									"fontsize" : 14.0,
									"hint" : "all tools available as clippings :) ",
									"id" : "obj-6",
									"ignoreclick" : 1,
									"maxclass" : "textbutton",
									"numinlets" : 1,
									"numoutlets" : 3,
									"outlettype" : [ "", "", "int" ],
									"parameter_enable" : 0,
									"patching_rect" : [ 460.0, 65.0, 100.0, 20.0 ],
									"presentation" : 1,
									"presentation_rect" : [ 40.0, 225.0, 160.0, 50.0 ],
									"rounded" : 6.0,
									"text" : "Tools"
								}

							}
, 							{
								"box" : 								{
									"bgcolor" : [ 0.901961, 0.901961, 0.901961, 1.0 ],
									"bgovercolor" : [ 0.65098, 0.65098, 0.65098, 1.0 ],
									"bordercolor" : [ 0.65098, 0.65098, 0.65098, 1.0 ],
									"borderoncolor" : [ 0.65098, 0.65098, 0.65098, 1.0 ],
									"fontface" : 3,
									"fontname" : "Arial",
									"fontsize" : 14.0,
									"hint" : "all modules available as clippings :) ",
									"id" : "obj-5",
									"ignoreclick" : 1,
									"maxclass" : "textbutton",
									"numinlets" : 1,
									"numoutlets" : 3,
									"outlettype" : [ "", "", "int" ],
									"parameter_enable" : 0,
									"patching_rect" : [ 335.0, 65.0, 100.0, 20.0 ],
									"presentation" : 1,
									"presentation_rect" : [ 40.0, 165.0, 160.0, 50.0 ],
									"rounded" : 6.0,
									"text" : "Modules"
								}

							}
, 							{
								"box" : 								{
									"bgcolor" : [ 0.901961, 0.901961, 0.901961, 1.0 ],
									"bgovercolor" : [ 0.65098, 0.65098, 0.65098, 1.0 ],
									"bordercolor" : [ 0.65098, 0.65098, 0.65098, 1.0 ],
									"borderoncolor" : [ 0.65098, 0.65098, 0.65098, 1.0 ],
									"fontface" : 3,
									"fontname" : "Arial",
									"fontsize" : 14.0,
									"id" : "obj-4",
									"maxclass" : "textbutton",
									"numinlets" : 1,
									"numoutlets" : 3,
									"outlettype" : [ "", "", "int" ],
									"parameter_enable" : 0,
									"patching_rect" : [ 210.0, 65.0, 100.0, 20.0 ],
									"presentation" : 1,
									"presentation_rect" : [ 40.0, 105.0, 160.0, 50.0 ],
									"rounded" : 6.0,
									"text" : "Quickies"
								}

							}
, 							{
								"box" : 								{
									"bgcolor" : [ 0.901961, 0.901961, 0.901961, 1.0 ],
									"bgovercolor" : [ 0.65098, 0.65098, 0.65098, 1.0 ],
									"bordercolor" : [ 0.65098, 0.65098, 0.65098, 1.0 ],
									"borderoncolor" : [ 0.65098, 0.65098, 0.65098, 1.0 ],
									"fontface" : 3,
									"fontname" : "Arial",
									"fontsize" : 14.0,
									"id" : "obj-3",
									"maxclass" : "textbutton",
									"numinlets" : 1,
									"numoutlets" : 3,
									"outlettype" : [ "", "", "int" ],
									"parameter_enable" : 0,
									"patching_rect" : [ 95.0, 65.0, 100.0, 20.0 ],
									"presentation" : 1,
									"presentation_rect" : [ 40.0, 45.0, 160.0, 50.0 ],
									"rounded" : 6.0,
									"text" : "API exclusive"
								}

							}
, 							{
								"box" : 								{
									"fontface" : 3,
									"fontname" : "Arial",
									"fontsize" : 16.0,
									"id" : "obj-2",
									"maxclass" : "comment",
									"numinlets" : 1,
									"numoutlets" : 0,
									"patching_rect" : [ 0.0, 0.0, 383.0, 25.0 ],
									"presentation" : 1,
									"presentation_rect" : [ 0.0, 0.0, 242.0, 25.0 ],
									"text" : "USER CLIPPINGS — Overview"
								}

							}
, 							{
								"box" : 								{
									"angle" : 270.0,
									"grad1" : [ 0.65098, 0.65098, 0.65098, 1.0 ],
									"grad2" : [ 1.0, 0.99828, 0.995128, 1.0 ],
									"id" : "obj-47",
									"ignoreclick" : 1,
									"maxclass" : "panel",
									"mode" : 1,
									"numinlets" : 1,
									"numoutlets" : 0,
									"patching_rect" : [ 0.0, 0.0, 1440.0, 35.0 ],
									"presentation" : 1,
									"presentation_rect" : [ 0.0, 0.0, 242.0, 345.0 ],
									"rounded" : 0
								}

							}
, 							{
								"box" : 								{
									"comment" : "",
									"id" : "obj-1",
									"maxclass" : "inlet",
									"numinlets" : 0,
									"numoutlets" : 1,
									"outlettype" : [ "" ],
									"patching_rect" : [ 0.0, 40.0, 25.0, 25.0 ]
								}

							}
 ],
						"lines" : [ 							{
								"patchline" : 								{
									"destination" : [ "obj-9", 0 ],
									"disabled" : 0,
									"hidden" : 0,
									"source" : [ "obj-10", 0 ]
								}

							}
, 							{
								"patchline" : 								{
									"destination" : [ "obj-10", 0 ],
									"disabled" : 0,
									"hidden" : 0,
									"source" : [ "obj-11", 0 ]
								}

							}
, 							{
								"patchline" : 								{
									"destination" : [ "obj-13", 0 ],
									"disabled" : 0,
									"hidden" : 0,
									"source" : [ "obj-12", 0 ]
								}

							}
, 							{
								"patchline" : 								{
									"destination" : [ "obj-14", 0 ],
									"disabled" : 0,
									"hidden" : 0,
									"source" : [ "obj-13", 0 ]
								}

							}
, 							{
								"patchline" : 								{
									"destination" : [ "obj-16", 0 ],
									"disabled" : 0,
									"hidden" : 0,
									"source" : [ "obj-15", 0 ]
								}

							}
, 							{
								"patchline" : 								{
									"destination" : [ "obj-17", 0 ],
									"disabled" : 0,
									"hidden" : 0,
									"source" : [ "obj-16", 0 ]
								}

							}
, 							{
								"patchline" : 								{
									"destination" : [ "obj-11", 0 ],
									"disabled" : 0,
									"hidden" : 0,
									"source" : [ "obj-3", 0 ]
								}

							}
, 							{
								"patchline" : 								{
									"destination" : [ "obj-12", 0 ],
									"disabled" : 0,
									"hidden" : 0,
									"source" : [ "obj-4", 0 ]
								}

							}
, 							{
								"patchline" : 								{
									"destination" : [ "obj-15", 0 ],
									"disabled" : 0,
									"hidden" : 0,
									"source" : [ "obj-7", 0 ]
								}

							}
 ],
						"dependency_cache" : [  ]
					}
,
					"patching_rect" : [ 152.5, 120.0, 110.0, 18.0 ],
					"saved_object_attributes" : 					{
						"default_fontface" : 0,
						"digest" : "",
						"default_fontname" : "Arial",
						"fontname" : "Arial",
						"tags" : "",
						"default_fontsize" : 10.0,
						"globalpatchername" : "",
						"description" : "",
						"fontface" : 0,
						"fontsize" : 10.0
					}
,
					"text" : "p \"USER CLIPPINGS\""
				}

			}
, 			{
				"box" : 				{
					"fontname" : "Arial",
					"fontsize" : 10.0,
					"id" : "obj-3",
					"maxclass" : "newobj",
					"numinlets" : 1,
					"numoutlets" : 0,
					"patcher" : 					{
						"fileversion" : 1,
						"appversion" : 						{
							"major" : 6,
							"minor" : 0,
							"revision" : 5
						}
,
						"rect" : [ 163.0, 556.0, 265.0, 207.0 ],
						"bglocked" : 0,
						"openinpresentation" : 1,
						"default_fontsize" : 10.0,
						"default_fontface" : 0,
						"default_fontname" : "Arial",
						"gridonopen" : 0,
						"gridsize" : [ 5.0, 5.0 ],
						"gridsnaponopen" : 0,
						"statusbarvisible" : 2,
						"toolbarvisible" : 1,
						"boxanimatetime" : 200,
						"imprint" : 0,
						"enablehscroll" : 1,
						"enablevscroll" : 1,
						"devicewidth" : 0.0,
						"description" : "",
						"digest" : "",
						"tags" : "",
						"boxes" : [ 							{
								"box" : 								{
									"fontname" : "Arial",
									"fontsize" : 10.0,
									"id" : "obj-12",
									"maxclass" : "newobj",
									"numinlets" : 1,
									"numoutlets" : 1,
									"outlettype" : [ "open" ],
									"patching_rect" : [ 160.0, 82.0, 38.0, 18.0 ],
									"text" : "t open"
								}

							}
, 							{
								"box" : 								{
									"fontname" : "Arial",
									"fontsize" : 10.0,
									"id" : "obj-13",
									"maxclass" : "newobj",
									"numinlets" : 1,
									"numoutlets" : 1,
									"outlettype" : [ "" ],
									"patching_rect" : [ 160.0, 105.0, 46.0, 18.0 ],
									"text" : "pcontrol"
								}

							}
, 							{
								"box" : 								{
									"fontname" : "Arial",
									"fontsize" : 10.0,
									"id" : "obj-14",
									"maxclass" : "newobj",
									"numinlets" : 1,
									"numoutlets" : 0,
									"patcher" : 									{
										"fileversion" : 1,
										"appversion" : 										{
											"major" : 6,
											"minor" : 0,
											"revision" : 5
										}
,
										"rect" : [ 321.0, 113.0, 348.0, 201.0 ],
										"bglocked" : 0,
										"openinpresentation" : 1,
										"default_fontsize" : 10.0,
										"default_fontface" : 0,
										"default_fontname" : "Arial",
										"gridonopen" : 0,
										"gridsize" : [ 5.0, 5.0 ],
										"gridsnaponopen" : 0,
										"statusbarvisible" : 2,
										"toolbarvisible" : 1,
										"boxanimatetime" : 200,
										"imprint" : 0,
										"enablehscroll" : 1,
										"enablevscroll" : 1,
										"devicewidth" : 0.0,
										"description" : "",
										"digest" : "",
										"tags" : "",
										"boxes" : [ 											{
												"box" : 												{
													"bgcolor" : [ 0.65098, 0.65098, 0.65098, 1.0 ],
													"fontface" : 3,
													"fontname" : "Arial",
													"fontsize" : 12.0,
													"id" : "obj-7",
													"maxclass" : "message",
													"numinlets" : 2,
													"numoutlets" : 1,
													"outlettype" : [ "" ],
													"patching_rect" : [ 115.0, 195.0, 96.0, 18.0 ],
													"presentation" : 1,
													"presentation_rect" : [ 100.0, 125.0, 134.0, 18.0 ],
													"text" : "tool header",
													"textcolor" : [ 0.901961, 0.901961, 0.901961, 1.0 ]
												}

											}
, 											{
												"box" : 												{
													"bgcolor" : [ 0.65098, 0.65098, 0.65098, 1.0 ],
													"fontface" : 3,
													"fontname" : "Arial",
													"fontsize" : 12.0,
													"id" : "obj-6",
													"maxclass" : "message",
													"numinlets" : 2,
													"numoutlets" : 1,
													"outlettype" : [ "" ],
													"patching_rect" : [ 92.0, 145.0, 99.0, 18.0 ],
													"presentation" : 1,
													"presentation_rect" : [ 100.0, 100.0, 134.0, 18.0 ],
													"text" : "state on_off",
													"textcolor" : [ 0.901961, 0.901961, 0.901961, 1.0 ]
												}

											}
, 											{
												"box" : 												{
													"bgcolor" : [ 0.65098, 0.65098, 0.65098, 1.0 ],
													"fontface" : 3,
													"fontname" : "Arial",
													"fontsize" : 12.0,
													"id" : "obj-5",
													"linecount" : 2,
													"maxclass" : "message",
													"numinlets" : 2,
													"numoutlets" : 1,
													"outlettype" : [ "" ],
													"patching_rect" : [ 75.0, 120.0, 81.0, 32.0 ],
													"presentation" : 1,
													"presentation_rect" : [ 100.0, 175.0, 134.0, 18.0 ],
													"text" : "varname interface",
													"textcolor" : [ 0.901961, 0.901961, 0.901961, 1.0 ]
												}

											}
, 											{
												"box" : 												{
													"bgcolor" : [ 0.65098, 0.65098, 0.65098, 1.0 ],
													"fontface" : 3,
													"fontname" : "Arial",
													"fontsize" : 12.0,
													"id" : "obj-4",
													"maxclass" : "message",
													"numinlets" : 2,
													"numoutlets" : 1,
													"outlettype" : [ "" ],
													"patching_rect" : [ 60.0, 95.0, 113.0, 18.0 ],
													"presentation" : 1,
													"presentation_rect" : [ 100.0, 150.0, 134.0, 18.0 ],
													"text" : "transport control",
													"textcolor" : [ 0.901961, 0.901961, 0.901961, 1.0 ]
												}

											}
, 											{
												"box" : 												{
													"bgcolor" : [ 0.65098, 0.65098, 0.65098, 1.0 ],
													"fontface" : 3,
													"fontname" : "Arial",
													"fontsize" : 12.0,
													"id" : "obj-3",
													"maxclass" : "message",
													"numinlets" : 2,
													"numoutlets" : 1,
													"outlettype" : [ "" ],
													"patching_rect" : [ 45.0, 70.0, 106.0, 18.0 ],
													"presentation" : 1,
													"presentation_rect" : [ 100.0, 75.0, 134.0, 18.0 ],
													"text" : "file handler",
													"textcolor" : [ 0.901961, 0.901961, 0.901961, 1.0 ]
												}

											}
, 											{
												"box" : 												{
													"bgcolor" : [ 0.65098, 0.65098, 0.65098, 1.0 ],
													"fontface" : 3,
													"fontname" : "Arial",
													"fontsize" : 12.0,
													"id" : "obj-26",
													"linecount" : 2,
													"maxclass" : "message",
													"numinlets" : 2,
													"numoutlets" : 1,
													"outlettype" : [ "" ],
													"patching_rect" : [ 35.0, 40.0, 80.0, 32.0 ],
													"presentation" : 1,
													"presentation_rect" : [ 100.0, 50.0, 134.0, 18.0 ],
													"text" : "basic visual feedback",
													"textcolor" : [ 0.901961, 0.901961, 0.901961, 1.0 ]
												}

											}
, 											{
												"box" : 												{
													"fontname" : "Arial",
													"fontsize" : 10.0,
													"hidden" : 1,
													"id" : "obj-135",
													"maxclass" : "newobj",
													"numinlets" : 1,
													"numoutlets" : 0,
													"patcher" : 													{
														"fileversion" : 1,
														"appversion" : 														{
															"major" : 6,
															"minor" : 0,
															"revision" : 5
														}
,
														"rect" : [ 25.0, 69.0, 640.0, 480.0 ],
														"bglocked" : 0,
														"openinpresentation" : 0,
														"default_fontsize" : 10.0,
														"default_fontface" : 0,
														"default_fontname" : "Arial",
														"gridonopen" : 0,
														"gridsize" : [ 5.0, 5.0 ],
														"gridsnaponopen" : 0,
														"statusbarvisible" : 2,
														"toolbarvisible" : 1,
														"boxanimatetime" : 200,
														"imprint" : 0,
														"enablehscroll" : 1,
														"enablevscroll" : 1,
														"devicewidth" : 0.0,
														"description" : "",
														"digest" : "",
														"tags" : "",
														"boxes" : [ 															{
																"box" : 																{
																	"fontname" : "Arial",
																	"fontsize" : 10.0,
																	"id" : "obj-1",
																	"maxclass" : "newobj",
																	"numinlets" : 1,
																	"numoutlets" : 1,
																	"outlettype" : [ "" ],
																	"patching_rect" : [ 50.0, 75.0, 51.0, 18.0 ],
																	"text" : "tosymbol"
																}

															}
, 															{
																"box" : 																{
																	"fontname" : "Arial",
																	"fontsize" : 10.0,
																	"id" : "obj-5",
																	"maxclass" : "newobj",
																	"numinlets" : 1,
																	"numoutlets" : 1,
																	"outlettype" : [ "" ],
																	"patching_rect" : [ 50.0, 125.0, 69.0, 18.0 ],
																	"text" : "prepend load"
																}

															}
, 															{
																"box" : 																{
																	"fontname" : "Arial",
																	"fontsize" : 10.0,
																	"id" : "obj-4",
																	"maxclass" : "newobj",
																	"numinlets" : 2,
																	"numoutlets" : 2,
																	"outlettype" : [ "", "" ],
																	"patching_rect" : [ 50.0, 100.0, 114.0, 18.0 ],
																	"text" : "combine name .maxpat"
																}

															}
, 															{
																"box" : 																{
																	"fontname" : "Arial",
																	"fontsize" : 10.0,
																	"id" : "obj-3",
																	"maxclass" : "newobj",
																	"numinlets" : 1,
																	"numoutlets" : 1,
																	"outlettype" : [ "" ],
																	"patching_rect" : [ 50.0, 150.0, 46.0, 18.0 ],
																	"text" : "pcontrol"
																}

															}
, 															{
																"box" : 																{
																	"comment" : "",
																	"id" : "obj-134",
																	"maxclass" : "inlet",
																	"numinlets" : 0,
																	"numoutlets" : 1,
																	"outlettype" : [ "" ],
																	"patching_rect" : [ 50.0, 40.0, 25.0, 25.0 ]
																}

															}
 ],
														"lines" : [ 															{
																"patchline" : 																{
																	"destination" : [ "obj-4", 0 ],
																	"disabled" : 0,
																	"hidden" : 0,
																	"source" : [ "obj-1", 0 ]
																}

															}
, 															{
																"patchline" : 																{
																	"destination" : [ "obj-1", 0 ],
																	"disabled" : 0,
																	"hidden" : 0,
																	"source" : [ "obj-134", 0 ]
																}

															}
, 															{
																"patchline" : 																{
																	"destination" : [ "obj-5", 0 ],
																	"disabled" : 0,
																	"hidden" : 0,
																	"source" : [ "obj-4", 0 ]
																}

															}
, 															{
																"patchline" : 																{
																	"destination" : [ "obj-3", 0 ],
																	"disabled" : 0,
																	"hidden" : 0,
																	"source" : [ "obj-5", 0 ]
																}

															}
 ],
														"dependency_cache" : [  ]
													}
,
													"patching_rect" : [ 35.0, 385.0, 68.0, 18.0 ],
													"saved_object_attributes" : 													{
														"default_fontface" : 0,
														"digest" : "",
														"default_fontname" : "Arial",
														"fontname" : "Arial",
														"tags" : "",
														"default_fontsize" : 10.0,
														"globalpatchername" : "",
														"description" : "",
														"fontface" : 0,
														"fontsize" : 10.0
													}
,
													"text" : "p load_patch"
												}

											}
, 											{
												"box" : 												{
													"fontface" : 3,
													"fontname" : "Arial",
													"fontsize" : 16.0,
													"id" : "obj-2",
													"maxclass" : "comment",
													"numinlets" : 1,
													"numoutlets" : 0,
													"patching_rect" : [ 0.0, 0.0, 383.0, 25.0 ],
													"presentation" : 1,
													"presentation_rect" : [ 0.0, 0.0, 348.0, 25.0 ],
													"text" : "DEVELOPER: Module Clippings — Overview"
												}

											}
, 											{
												"box" : 												{
													"angle" : 270.0,
													"grad1" : [ 0.65098, 0.65098, 0.65098, 1.0 ],
													"grad2" : [ 1.0, 0.99828, 0.995128, 1.0 ],
													"id" : "obj-47",
													"ignoreclick" : 1,
													"maxclass" : "panel",
													"mode" : 1,
													"numinlets" : 1,
													"numoutlets" : 0,
													"patching_rect" : [ 0.0, 0.0, 1440.0, 35.0 ],
													"presentation" : 1,
													"presentation_rect" : [ 0.0, 0.0, 348.0, 200.0 ],
													"rounded" : 0
												}

											}
, 											{
												"box" : 												{
													"comment" : "",
													"id" : "obj-1",
													"maxclass" : "inlet",
													"numinlets" : 0,
													"numoutlets" : 1,
													"outlettype" : [ "" ],
													"patching_rect" : [ 0.0, 40.0, 25.0, 25.0 ]
												}

											}
 ],
										"lines" : [ 											{
												"patchline" : 												{
													"destination" : [ "obj-135", 0 ],
													"disabled" : 0,
													"hidden" : 0,
													"source" : [ "obj-26", 0 ]
												}

											}
, 											{
												"patchline" : 												{
													"destination" : [ "obj-135", 0 ],
													"disabled" : 0,
													"hidden" : 0,
													"source" : [ "obj-3", 0 ]
												}

											}
, 											{
												"patchline" : 												{
													"destination" : [ "obj-135", 0 ],
													"disabled" : 0,
													"hidden" : 0,
													"source" : [ "obj-4", 0 ]
												}

											}
, 											{
												"patchline" : 												{
													"destination" : [ "obj-135", 0 ],
													"disabled" : 0,
													"hidden" : 0,
													"source" : [ "obj-5", 0 ]
												}

											}
, 											{
												"patchline" : 												{
													"destination" : [ "obj-135", 0 ],
													"disabled" : 0,
													"hidden" : 0,
													"source" : [ "obj-6", 0 ]
												}

											}
, 											{
												"patchline" : 												{
													"destination" : [ "obj-135", 0 ],
													"disabled" : 0,
													"hidden" : 0,
													"source" : [ "obj-7", 0 ]
												}

											}
 ],
										"dependency_cache" : [  ]
									}
,
									"patching_rect" : [ 160.0, 130.0, 68.0, 18.0 ],
									"saved_object_attributes" : 									{
										"default_fontface" : 0,
										"digest" : "",
										"default_fontname" : "Arial",
										"fontname" : "Arial",
										"tags" : "",
										"default_fontsize" : 10.0,
										"globalpatchername" : "",
										"description" : "",
										"fontface" : 0,
										"fontsize" : 10.0
									}
,
									"text" : "p MODULES"
								}

							}
, 							{
								"box" : 								{
									"fontname" : "Arial",
									"fontsize" : 10.0,
									"id" : "obj-11",
									"maxclass" : "newobj",
									"numinlets" : 1,
									"numoutlets" : 1,
									"outlettype" : [ "open" ],
									"patching_rect" : [ 45.0, 82.0, 38.0, 18.0 ],
									"text" : "t open"
								}

							}
, 							{
								"box" : 								{
									"fontname" : "Arial",
									"fontsize" : 10.0,
									"id" : "obj-10",
									"maxclass" : "newobj",
									"numinlets" : 1,
									"numoutlets" : 1,
									"outlettype" : [ "" ],
									"patching_rect" : [ 45.0, 105.0, 46.0, 18.0 ],
									"text" : "pcontrol"
								}

							}
, 							{
								"box" : 								{
									"fontname" : "Arial",
									"fontsize" : 10.0,
									"id" : "obj-9",
									"maxclass" : "newobj",
									"numinlets" : 1,
									"numoutlets" : 0,
									"patcher" : 									{
										"fileversion" : 1,
										"appversion" : 										{
											"major" : 6,
											"minor" : 0,
											"revision" : 5
										}
,
										"rect" : [ 25.0, 69.0, 341.0, 206.0 ],
										"bglocked" : 0,
										"openinpresentation" : 1,
										"default_fontsize" : 10.0,
										"default_fontface" : 0,
										"default_fontname" : "Arial",
										"gridonopen" : 0,
										"gridsize" : [ 5.0, 5.0 ],
										"gridsnaponopen" : 0,
										"statusbarvisible" : 2,
										"toolbarvisible" : 1,
										"boxanimatetime" : 200,
										"imprint" : 0,
										"enablehscroll" : 1,
										"enablevscroll" : 1,
										"devicewidth" : 0.0,
										"description" : "",
										"digest" : "",
										"tags" : "",
										"boxes" : [ 											{
												"box" : 												{
													"bgcolor" : [ 0.65098, 0.65098, 0.65098, 1.0 ],
													"fontface" : 3,
													"fontname" : "Arial",
													"fontsize" : 12.0,
													"id" : "obj-7",
													"maxclass" : "message",
													"numinlets" : 2,
													"numoutlets" : 1,
													"outlettype" : [ "" ],
													"patching_rect" : [ 105.0, 156.0, 96.0, 18.0 ],
													"presentation" : 1,
													"presentation_rect" : [ 86.0, 120.0, 164.0, 18.0 ],
													"text" : "idv header",
													"textcolor" : [ 0.901961, 0.901961, 0.901961, 1.0 ]
												}

											}
, 											{
												"box" : 												{
													"bgcolor" : [ 0.65098, 0.65098, 0.65098, 1.0 ],
													"fontface" : 3,
													"fontname" : "Arial",
													"fontsize" : 12.0,
													"id" : "obj-6",
													"maxclass" : "message",
													"numinlets" : 2,
													"numoutlets" : 1,
													"outlettype" : [ "" ],
													"patching_rect" : [ 92.0, 138.0, 88.0, 18.0 ],
													"presentation" : 1,
													"presentation_rect" : [ 86.0, 95.0, 164.0, 18.0 ],
													"text" : "gen header",
													"textcolor" : [ 0.901961, 0.901961, 0.901961, 1.0 ]
												}

											}
, 											{
												"box" : 												{
													"bgcolor" : [ 0.65098, 0.65098, 0.65098, 1.0 ],
													"fontface" : 3,
													"fontname" : "Arial",
													"fontsize" : 12.0,
													"id" : "obj-5",
													"maxclass" : "message",
													"numinlets" : 2,
													"numoutlets" : 1,
													"outlettype" : [ "" ],
													"patching_rect" : [ 75.0, 120.0, 81.0, 18.0 ],
													"presentation" : 1,
													"presentation_rect" : [ 86.0, 170.0, 164.0, 18.0 ],
													"text" : "mod header",
													"textcolor" : [ 0.901961, 0.901961, 0.901961, 1.0 ]
												}

											}
, 											{
												"box" : 												{
													"bgcolor" : [ 0.65098, 0.65098, 0.65098, 1.0 ],
													"fontface" : 3,
													"fontname" : "Arial",
													"fontsize" : 12.0,
													"id" : "obj-4",
													"maxclass" : "message",
													"numinlets" : 2,
													"numoutlets" : 1,
													"outlettype" : [ "" ],
													"patching_rect" : [ 60.0, 95.0, 113.0, 18.0 ],
													"presentation" : 1,
													"presentation_rect" : [ 86.0, 145.0, 164.0, 18.0 ],
													"text" : "mem header",
													"textcolor" : [ 0.901961, 0.901961, 0.901961, 1.0 ]
												}

											}
, 											{
												"box" : 												{
													"bgcolor" : [ 0.65098, 0.65098, 0.65098, 1.0 ],
													"fontface" : 3,
													"fontname" : "Arial",
													"fontsize" : 12.0,
													"id" : "obj-3",
													"maxclass" : "message",
													"numinlets" : 2,
													"numoutlets" : 1,
													"outlettype" : [ "" ],
													"patching_rect" : [ 45.0, 70.0, 80.0, 18.0 ],
													"presentation" : 1,
													"presentation_rect" : [ 86.0, 70.0, 164.0, 18.0 ],
													"text" : "api header",
													"textcolor" : [ 0.901961, 0.901961, 0.901961, 1.0 ]
												}

											}
, 											{
												"box" : 												{
													"bgcolor" : [ 0.65098, 0.65098, 0.65098, 1.0 ],
													"fontface" : 3,
													"fontname" : "Arial",
													"fontsize" : 12.0,
													"id" : "obj-26",
													"maxclass" : "message",
													"numinlets" : 2,
													"numoutlets" : 1,
													"outlettype" : [ "" ],
													"patching_rect" : [ 35.0, 40.0, 72.0, 18.0 ],
													"presentation" : 1,
													"presentation_rect" : [ 86.0, 45.0, 164.0, 18.0 ],
													"text" : "anl header",
													"textcolor" : [ 0.901961, 0.901961, 0.901961, 1.0 ]
												}

											}
, 											{
												"box" : 												{
													"fontname" : "Arial",
													"fontsize" : 10.0,
													"hidden" : 1,
													"id" : "obj-135",
													"maxclass" : "newobj",
													"numinlets" : 1,
													"numoutlets" : 0,
													"patcher" : 													{
														"fileversion" : 1,
														"appversion" : 														{
															"major" : 6,
															"minor" : 0,
															"revision" : 5
														}
,
														"rect" : [ 25.0, 69.0, 640.0, 480.0 ],
														"bglocked" : 0,
														"openinpresentation" : 0,
														"default_fontsize" : 10.0,
														"default_fontface" : 0,
														"default_fontname" : "Arial",
														"gridonopen" : 0,
														"gridsize" : [ 5.0, 5.0 ],
														"gridsnaponopen" : 0,
														"statusbarvisible" : 2,
														"toolbarvisible" : 1,
														"boxanimatetime" : 200,
														"imprint" : 0,
														"enablehscroll" : 1,
														"enablevscroll" : 1,
														"devicewidth" : 0.0,
														"description" : "",
														"digest" : "",
														"tags" : "",
														"boxes" : [ 															{
																"box" : 																{
																	"fontname" : "Arial",
																	"fontsize" : 10.0,
																	"id" : "obj-1",
																	"maxclass" : "newobj",
																	"numinlets" : 1,
																	"numoutlets" : 1,
																	"outlettype" : [ "" ],
																	"patching_rect" : [ 50.0, 75.0, 51.0, 18.0 ],
																	"text" : "tosymbol"
																}

															}
, 															{
																"box" : 																{
																	"fontname" : "Arial",
																	"fontsize" : 10.0,
																	"id" : "obj-5",
																	"maxclass" : "newobj",
																	"numinlets" : 1,
																	"numoutlets" : 1,
																	"outlettype" : [ "" ],
																	"patching_rect" : [ 50.0, 125.0, 69.0, 18.0 ],
																	"text" : "prepend load"
																}

															}
, 															{
																"box" : 																{
																	"fontname" : "Arial",
																	"fontsize" : 10.0,
																	"id" : "obj-4",
																	"maxclass" : "newobj",
																	"numinlets" : 2,
																	"numoutlets" : 2,
																	"outlettype" : [ "", "" ],
																	"patching_rect" : [ 50.0, 100.0, 114.0, 18.0 ],
																	"text" : "combine name .maxpat"
																}

															}
, 															{
																"box" : 																{
																	"fontname" : "Arial",
																	"fontsize" : 10.0,
																	"id" : "obj-3",
																	"maxclass" : "newobj",
																	"numinlets" : 1,
																	"numoutlets" : 1,
																	"outlettype" : [ "" ],
																	"patching_rect" : [ 50.0, 150.0, 46.0, 18.0 ],
																	"text" : "pcontrol"
																}

															}
, 															{
																"box" : 																{
																	"comment" : "",
																	"id" : "obj-134",
																	"maxclass" : "inlet",
																	"numinlets" : 0,
																	"numoutlets" : 1,
																	"outlettype" : [ "" ],
																	"patching_rect" : [ 50.0, 40.0, 25.0, 25.0 ]
																}

															}
 ],
														"lines" : [ 															{
																"patchline" : 																{
																	"destination" : [ "obj-4", 0 ],
																	"disabled" : 0,
																	"hidden" : 0,
																	"source" : [ "obj-1", 0 ]
																}

															}
, 															{
																"patchline" : 																{
																	"destination" : [ "obj-1", 0 ],
																	"disabled" : 0,
																	"hidden" : 0,
																	"source" : [ "obj-134", 0 ]
																}

															}
, 															{
																"patchline" : 																{
																	"destination" : [ "obj-5", 0 ],
																	"disabled" : 0,
																	"hidden" : 0,
																	"source" : [ "obj-4", 0 ]
																}

															}
, 															{
																"patchline" : 																{
																	"destination" : [ "obj-3", 0 ],
																	"disabled" : 0,
																	"hidden" : 0,
																	"source" : [ "obj-5", 0 ]
																}

															}
 ],
														"dependency_cache" : [  ]
													}
,
													"patching_rect" : [ 35.0, 185.0, 68.0, 18.0 ],
													"saved_object_attributes" : 													{
														"default_fontface" : 0,
														"digest" : "",
														"default_fontname" : "Arial",
														"fontname" : "Arial",
														"tags" : "",
														"default_fontsize" : 10.0,
														"globalpatchername" : "",
														"description" : "",
														"fontface" : 0,
														"fontsize" : 10.0
													}
,
													"text" : "p load_patch"
												}

											}
, 											{
												"box" : 												{
													"fontface" : 3,
													"fontname" : "Arial",
													"fontsize" : 16.0,
													"id" : "obj-2",
													"maxclass" : "comment",
													"numinlets" : 1,
													"numoutlets" : 0,
													"patching_rect" : [ 0.0, 0.0, 383.0, 25.0 ],
													"presentation" : 1,
													"presentation_rect" : [ 0.0, 0.0, 341.0, 25.0 ],
													"text" : "DEVELOPER: Help Clippings — Overview"
												}

											}
, 											{
												"box" : 												{
													"angle" : 270.0,
													"grad1" : [ 0.65098, 0.65098, 0.65098, 1.0 ],
													"grad2" : [ 1.0, 0.99828, 0.995128, 1.0 ],
													"id" : "obj-47",
													"ignoreclick" : 1,
													"maxclass" : "panel",
													"mode" : 1,
													"numinlets" : 1,
													"numoutlets" : 0,
													"patching_rect" : [ 0.0, 0.0, 1440.0, 35.0 ],
													"presentation" : 1,
													"presentation_rect" : [ 0.0, 0.0, 341.0, 205.0 ],
													"rounded" : 0
												}

											}
, 											{
												"box" : 												{
													"comment" : "",
													"id" : "obj-1",
													"maxclass" : "inlet",
													"numinlets" : 0,
													"numoutlets" : 1,
													"outlettype" : [ "" ],
													"patching_rect" : [ 0.0, 40.0, 25.0, 25.0 ]
												}

											}
 ],
										"lines" : [ 											{
												"patchline" : 												{
													"destination" : [ "obj-135", 0 ],
													"disabled" : 0,
													"hidden" : 0,
													"source" : [ "obj-26", 0 ]
												}

											}
, 											{
												"patchline" : 												{
													"destination" : [ "obj-135", 0 ],
													"disabled" : 0,
													"hidden" : 0,
													"source" : [ "obj-3", 0 ]
												}

											}
, 											{
												"patchline" : 												{
													"destination" : [ "obj-135", 0 ],
													"disabled" : 0,
													"hidden" : 0,
													"source" : [ "obj-4", 0 ]
												}

											}
, 											{
												"patchline" : 												{
													"destination" : [ "obj-135", 0 ],
													"disabled" : 0,
													"hidden" : 0,
													"source" : [ "obj-5", 0 ]
												}

											}
, 											{
												"patchline" : 												{
													"destination" : [ "obj-135", 0 ],
													"disabled" : 0,
													"hidden" : 0,
													"source" : [ "obj-7", 0 ]
												}

											}
 ],
										"dependency_cache" : [  ]
									}
,
									"patching_rect" : [ 45.0, 130.0, 45.0, 18.0 ],
									"saved_object_attributes" : 									{
										"default_fontface" : 0,
										"digest" : "",
										"default_fontname" : "Arial",
										"fontname" : "Arial",
										"tags" : "",
										"default_fontsize" : 10.0,
										"globalpatchername" : "",
										"description" : "",
										"fontface" : 0,
										"fontsize" : 10.0
									}
,
									"text" : "p HELP"
								}

							}
, 							{
								"box" : 								{
									"bgcolor" : [ 0.901961, 0.901961, 0.901961, 1.0 ],
									"bgovercolor" : [ 0.65098, 0.65098, 0.65098, 1.0 ],
									"bordercolor" : [ 0.65098, 0.65098, 0.65098, 1.0 ],
									"borderoncolor" : [ 0.65098, 0.65098, 0.65098, 1.0 ],
									"fontface" : 3,
									"fontname" : "Arial",
									"fontsize" : 14.0,
									"id" : "obj-4",
									"maxclass" : "textbutton",
									"numinlets" : 1,
									"numoutlets" : 3,
									"outlettype" : [ "", "", "int" ],
									"parameter_enable" : 0,
									"patching_rect" : [ 160.0, 55.0, 100.0, 20.0 ],
									"presentation" : 1,
									"presentation_rect" : [ 52.5, 120.0, 160.0, 50.0 ],
									"rounded" : 6.0,
									"text" : "module"
								}

							}
, 							{
								"box" : 								{
									"bgcolor" : [ 0.901961, 0.901961, 0.901961, 1.0 ],
									"bgovercolor" : [ 0.65098, 0.65098, 0.65098, 1.0 ],
									"bordercolor" : [ 0.65098, 0.65098, 0.65098, 1.0 ],
									"borderoncolor" : [ 0.65098, 0.65098, 0.65098, 1.0 ],
									"fontface" : 3,
									"fontname" : "Arial",
									"fontsize" : 14.0,
									"id" : "obj-3",
									"maxclass" : "textbutton",
									"numinlets" : 1,
									"numoutlets" : 3,
									"outlettype" : [ "", "", "int" ],
									"parameter_enable" : 0,
									"patching_rect" : [ 45.0, 55.0, 100.0, 20.0 ],
									"presentation" : 1,
									"presentation_rect" : [ 52.5, 60.0, 160.0, 50.0 ],
									"rounded" : 6.0,
									"text" : "help"
								}

							}
, 							{
								"box" : 								{
									"fontface" : 3,
									"fontname" : "Arial",
									"fontsize" : 16.0,
									"id" : "obj-2",
									"maxclass" : "comment",
									"numinlets" : 1,
									"numoutlets" : 0,
									"patching_rect" : [ 0.0, 0.0, 383.0, 25.0 ],
									"presentation" : 1,
									"presentation_rect" : [ 0.0, 0.0, 265.0, 25.0 ],
									"text" : "Developer Clippings — Overview"
								}

							}
, 							{
								"box" : 								{
									"angle" : 270.0,
									"grad1" : [ 0.65098, 0.65098, 0.65098, 1.0 ],
									"grad2" : [ 1.0, 0.99828, 0.995128, 1.0 ],
									"id" : "obj-47",
									"ignoreclick" : 1,
									"maxclass" : "panel",
									"mode" : 1,
									"numinlets" : 1,
									"numoutlets" : 0,
									"patching_rect" : [ 0.0, 0.0, 1440.0, 35.0 ],
									"presentation" : 1,
									"presentation_rect" : [ 0.0, 0.0, 265.0, 205.0 ],
									"rounded" : 0
								}

							}
, 							{
								"box" : 								{
									"comment" : "",
									"id" : "obj-1",
									"maxclass" : "inlet",
									"numinlets" : 0,
									"numoutlets" : 1,
									"outlettype" : [ "" ],
									"patching_rect" : [ 0.0, 40.0, 25.0, 25.0 ]
								}

							}
 ],
						"lines" : [ 							{
								"patchline" : 								{
									"destination" : [ "obj-9", 0 ],
									"disabled" : 0,
									"hidden" : 0,
									"source" : [ "obj-10", 0 ]
								}

							}
, 							{
								"patchline" : 								{
									"destination" : [ "obj-10", 0 ],
									"disabled" : 0,
									"hidden" : 0,
									"source" : [ "obj-11", 0 ]
								}

							}
, 							{
								"patchline" : 								{
									"destination" : [ "obj-13", 0 ],
									"disabled" : 0,
									"hidden" : 0,
									"source" : [ "obj-12", 0 ]
								}

							}
, 							{
								"patchline" : 								{
									"destination" : [ "obj-14", 0 ],
									"disabled" : 0,
									"hidden" : 0,
									"source" : [ "obj-13", 0 ]
								}

							}
, 							{
								"patchline" : 								{
									"destination" : [ "obj-11", 0 ],
									"disabled" : 0,
									"hidden" : 0,
									"source" : [ "obj-3", 0 ]
								}

							}
, 							{
								"patchline" : 								{
									"destination" : [ "obj-12", 0 ],
									"disabled" : 0,
									"hidden" : 0,
									"source" : [ "obj-4", 0 ]
								}

							}
 ],
						"dependency_cache" : [  ]
					}
,
					"patching_rect" : [ 7.5, 120.0, 143.0, 18.0 ],
					"saved_object_attributes" : 					{
						"default_fontface" : 0,
						"digest" : "",
						"default_fontname" : "Arial",
						"fontname" : "Arial",
						"tags" : "",
						"default_fontsize" : 10.0,
						"globalpatchername" : "",
						"description" : "",
						"fontface" : 0,
						"fontsize" : 10.0
					}
,
					"text" : "p \"DEVELOPER CLIPPINGS\""
				}

			}
, 			{
				"box" : 				{
					"bgcolor" : [ 0.901961, 0.901961, 0.901961, 1.0 ],
					"bgovercolor" : [ 0.65098, 0.65098, 0.65098, 1.0 ],
					"bordercolor" : [ 0.65098, 0.65098, 0.65098, 1.0 ],
					"borderoncolor" : [ 0.65098, 0.65098, 0.65098, 1.0 ],
					"fontface" : 3,
					"fontname" : "Arial",
					"fontsize" : 14.0,
					"id" : "obj-1",
					"maxclass" : "textbutton",
					"numinlets" : 1,
					"numoutlets" : 3,
					"outlettype" : [ "", "", "int" ],
					"parameter_enable" : 0,
					"patching_rect" : [ 152.5, 45.0, 100.0, 20.0 ],
					"presentation" : 1,
					"presentation_rect" : [ 170.0, 40.0, 150.0, 50.0 ],
					"rounded" : 6.0,
					"text" : "user"
				}

			}
, 			{
				"box" : 				{
					"bgcolor" : [ 0.901961, 0.901961, 0.901961, 1.0 ],
					"bgovercolor" : [ 0.65098, 0.65098, 0.65098, 1.0 ],
					"bordercolor" : [ 0.65098, 0.65098, 0.65098, 1.0 ],
					"borderoncolor" : [ 0.65098, 0.65098, 0.65098, 1.0 ],
					"fontface" : 3,
					"fontname" : "Arial",
					"fontsize" : 14.0,
					"id" : "obj-103",
					"maxclass" : "textbutton",
					"numinlets" : 1,
					"numoutlets" : 3,
					"outlettype" : [ "", "", "int" ],
					"parameter_enable" : 0,
					"patching_rect" : [ 7.5, 45.0, 100.0, 20.0 ],
					"presentation" : 1,
					"presentation_rect" : [ 15.0, 40.0, 150.0, 50.0 ],
					"rounded" : 6.0,
					"text" : "developer"
				}

			}
, 			{
				"box" : 				{
					"fontface" : 3,
					"fontname" : "Arial",
					"fontsize" : 16.0,
					"id" : "obj-2",
					"maxclass" : "comment",
					"numinlets" : 1,
					"numoutlets" : 0,
					"patching_rect" : [ 0.0, 0.0, 383.0, 25.0 ],
					"presentation" : 1,
					"presentation_rect" : [ 0.0, 0.0, 334.0, 25.0 ],
					"text" : "Open Instruments CLIPPINGS — Overview"
				}

			}
, 			{
				"box" : 				{
					"angle" : 270.0,
					"grad1" : [ 0.65098, 0.65098, 0.65098, 1.0 ],
					"grad2" : [ 1.0, 0.99828, 0.995128, 1.0 ],
					"id" : "obj-47",
					"ignoreclick" : 1,
					"maxclass" : "panel",
					"mode" : 1,
					"numinlets" : 1,
					"numoutlets" : 0,
					"patching_rect" : [ 0.0, 0.0, 395.0, 35.0 ],
					"presentation" : 1,
					"presentation_rect" : [ 0.0, 0.0, 334.0, 105.0 ],
					"rounded" : 0
				}

			}
 ],
		"lines" : [ 			{
				"patchline" : 				{
					"destination" : [ "obj-8", 0 ],
					"disabled" : 0,
					"hidden" : 0,
					"source" : [ "obj-1", 0 ]
				}

			}
, 			{
				"patchline" : 				{
					"destination" : [ "obj-7", 0 ],
					"disabled" : 0,
					"hidden" : 0,
					"source" : [ "obj-103", 0 ]
				}

			}
, 			{
				"patchline" : 				{
					"destination" : [ "obj-3", 0 ],
					"disabled" : 0,
					"hidden" : 0,
					"source" : [ "obj-6", 0 ]
				}

			}
, 			{
				"patchline" : 				{
					"destination" : [ "obj-6", 0 ],
					"disabled" : 0,
					"hidden" : 0,
					"source" : [ "obj-7", 0 ]
				}

			}
, 			{
				"patchline" : 				{
					"destination" : [ "obj-9", 0 ],
					"disabled" : 0,
					"hidden" : 0,
					"source" : [ "obj-8", 0 ]
				}

			}
, 			{
				"patchline" : 				{
					"destination" : [ "obj-5", 0 ],
					"disabled" : 0,
					"hidden" : 0,
					"source" : [ "obj-9", 0 ]
				}

			}
 ],
		"dependency_cache" : [  ]
	}

}
