{
	"patcher" : 	{
		"fileversion" : 1,
		"appversion" : 		{
			"major" : 6,
			"minor" : 0,
			"revision" : 5
		}
,
		"rect" : [ 2248.0, 140.0, 496.0, 280.0 ],
		"bglocked" : 0,
		"openinpresentation" : 0,
		"default_fontsize" : 10.0,
		"default_fontface" : 0,
		"default_fontname" : "Arial",
		"gridonopen" : 0,
		"gridsize" : [ 5.0, 5.0 ],
		"gridsnaponopen" : 0,
		"statusbarvisible" : 2,
		"toolbarvisible" : 1,
		"boxanimatetime" : 200,
		"imprint" : 0,
		"enablehscroll" : 1,
		"enablevscroll" : 1,
		"devicewidth" : 0.0,
		"description" : "",
		"digest" : "",
		"tags" : "",
		"boxes" : [ 			{
				"box" : 				{
					"fontname" : "Arial",
					"fontsize" : 10.0,
					"id" : "obj-32",
					"maxclass" : "newobj",
					"numinlets" : 3,
					"numoutlets" : 1,
					"outlettype" : [ "" ],
					"patcher" : 					{
						"fileversion" : 1,
						"appversion" : 						{
							"major" : 6,
							"minor" : 0,
							"revision" : 5
						}
,
						"rect" : [ 75.0, 119.0, 640.0, 480.0 ],
						"bglocked" : 0,
						"openinpresentation" : 0,
						"default_fontsize" : 10.0,
						"default_fontface" : 0,
						"default_fontname" : "Arial",
						"gridonopen" : 0,
						"gridsize" : [ 5.0, 5.0 ],
						"gridsnaponopen" : 0,
						"statusbarvisible" : 2,
						"toolbarvisible" : 1,
						"boxanimatetime" : 200,
						"imprint" : 0,
						"enablehscroll" : 1,
						"enablevscroll" : 1,
						"devicewidth" : 0.0,
						"description" : "",
						"digest" : "",
						"tags" : "",
						"boxes" : [ 							{
								"box" : 								{
									"fontname" : "Arial",
									"fontsize" : 10.0,
									"id" : "obj-26",
									"maxclass" : "message",
									"numinlets" : 2,
									"numoutlets" : 1,
									"outlettype" : [ "" ],
									"patching_rect" : [ 242.0, 100.0, 50.0, 16.0 ]
								}

							}
, 							{
								"box" : 								{
									"fontname" : "Arial",
									"fontsize" : 10.0,
									"id" : "obj-24",
									"maxclass" : "message",
									"numinlets" : 2,
									"numoutlets" : 1,
									"outlettype" : [ "" ],
									"patching_rect" : [ 242.0, 205.0, 52.0, 16.0 ],
									"text" : "bindto $1"
								}

							}
, 							{
								"box" : 								{
									"fontname" : "Arial",
									"fontsize" : 10.0,
									"id" : "obj-12",
									"maxclass" : "newobj",
									"numinlets" : 2,
									"numoutlets" : 1,
									"outlettype" : [ "int" ],
									"patching_rect" : [ 201.0, 100.0, 32.5, 18.0 ],
									"text" : "+ 1"
								}

							}
, 							{
								"box" : 								{
									"fontname" : "Arial",
									"fontsize" : 10.0,
									"id" : "obj-11",
									"maxclass" : "newobj",
									"numinlets" : 2,
									"numoutlets" : 2,
									"outlettype" : [ "", "" ],
									"patching_rect" : [ 201.0, 125.0, 60.0, 18.0 ],
									"text" : "gate 2"
								}

							}
, 							{
								"box" : 								{
									"fontname" : "Arial",
									"fontsize" : 10.0,
									"id" : "obj-9",
									"maxclass" : "newobj",
									"numinlets" : 2,
									"numoutlets" : 2,
									"outlettype" : [ "", "" ],
									"patching_rect" : [ 50.0, 150.0, 170.0, 18.0 ],
									"text" : "combine parent:: bindto @triggers 1"
								}

							}
, 							{
								"box" : 								{
									"comment" : "",
									"id" : "obj-28",
									"maxclass" : "inlet",
									"numinlets" : 0,
									"numoutlets" : 1,
									"outlettype" : [ "" ],
									"patching_rect" : [ 201.0, 40.0, 25.0, 25.0 ]
								}

							}
, 							{
								"box" : 								{
									"comment" : "",
									"id" : "obj-29",
									"maxclass" : "inlet",
									"numinlets" : 0,
									"numoutlets" : 1,
									"outlettype" : [ "" ],
									"patching_rect" : [ 150.0, 40.0, 25.0, 25.0 ]
								}

							}
, 							{
								"box" : 								{
									"comment" : "",
									"id" : "obj-30",
									"maxclass" : "inlet",
									"numinlets" : 0,
									"numoutlets" : 1,
									"outlettype" : [ "" ],
									"patching_rect" : [ 273.0, 40.0, 25.0, 25.0 ]
								}

							}
, 							{
								"box" : 								{
									"comment" : "",
									"id" : "obj-31",
									"maxclass" : "outlet",
									"numinlets" : 1,
									"numoutlets" : 0,
									"patching_rect" : [ 242.0, 231.724609, 25.0, 25.0 ]
								}

							}
 ],
						"lines" : [ 							{
								"patchline" : 								{
									"destination" : [ "obj-24", 0 ],
									"disabled" : 0,
									"hidden" : 0,
									"source" : [ "obj-11", 1 ]
								}

							}
, 							{
								"patchline" : 								{
									"destination" : [ "obj-9", 1 ],
									"disabled" : 0,
									"hidden" : 0,
									"source" : [ "obj-11", 0 ]
								}

							}
, 							{
								"patchline" : 								{
									"destination" : [ "obj-11", 0 ],
									"disabled" : 0,
									"hidden" : 0,
									"source" : [ "obj-12", 0 ]
								}

							}
, 							{
								"patchline" : 								{
									"destination" : [ "obj-31", 0 ],
									"disabled" : 0,
									"hidden" : 0,
									"source" : [ "obj-24", 0 ]
								}

							}
, 							{
								"patchline" : 								{
									"destination" : [ "obj-11", 1 ],
									"disabled" : 0,
									"hidden" : 0,
									"source" : [ "obj-26", 0 ]
								}

							}
, 							{
								"patchline" : 								{
									"destination" : [ "obj-12", 0 ],
									"disabled" : 0,
									"hidden" : 0,
									"source" : [ "obj-28", 0 ]
								}

							}
, 							{
								"patchline" : 								{
									"destination" : [ "obj-26", 0 ],
									"disabled" : 0,
									"hidden" : 0,
									"source" : [ "obj-29", 0 ]
								}

							}
, 							{
								"patchline" : 								{
									"destination" : [ "obj-26", 1 ],
									"disabled" : 0,
									"hidden" : 0,
									"source" : [ "obj-30", 0 ]
								}

							}
, 							{
								"patchline" : 								{
									"destination" : [ "obj-24", 0 ],
									"disabled" : 0,
									"hidden" : 0,
									"source" : [ "obj-9", 0 ]
								}

							}
 ],
						"dependency_cache" : [  ]
					}
,
					"patching_rect" : [ 243.833344, 75.0, 87.666664, 18.0 ],
					"saved_object_attributes" : 					{
						"fontsize" : 10.0,
						"tags" : "",
						"default_fontface" : 0,
						"digest" : "",
						"globalpatchername" : "",
						"default_fontname" : "Arial",
						"fontname" : "Arial",
						"default_fontsize" : 10.0,
						"description" : "",
						"fontface" : 0
					}
,
					"text" : "p bindto"
				}

			}
, 			{
				"box" : 				{
					"fontname" : "Arial",
					"fontsize" : 10.0,
					"id" : "obj-10",
					"maxclass" : "newobj",
					"numinlets" : 4,
					"numoutlets" : 4,
					"outlettype" : [ "", "", "", "" ],
					"patching_rect" : [ 243.833344, 40.0, 122.0, 18.0 ],
					"text" : "route done marker bindto"
				}

			}
, 			{
				"box" : 				{
					"fontname" : "Arial",
					"fontsize" : 10.0,
					"id" : "obj-6",
					"maxclass" : "newobj",
					"numinlets" : 1,
					"numoutlets" : 1,
					"outlettype" : [ "" ],
					"patching_rect" : [ 176.0, 130.0, 48.0, 18.0 ],
					"text" : "deferlow"
				}

			}
, 			{
				"box" : 				{
					"fontface" : 2,
					"fontname" : "Arial",
					"fontsize" : 10.0,
					"id" : "obj-8",
					"linecount" : 7,
					"maxclass" : "comment",
					"numinlets" : 1,
					"numoutlets" : 0,
					"patching_rect" : [ 379.333344, 40.0, 81.0, 87.0 ],
					"text" : "You can still set all other 'pattr' attributes. In fact you should provide the 'bindto' argument"
				}

			}
, 			{
				"box" : 				{
					"fontface" : 2,
					"fontname" : "Arial",
					"fontsize" : 10.0,
					"id" : "obj-7",
					"maxclass" : "comment",
					"numinlets" : 1,
					"numoutlets" : 0,
					"patching_rect" : [ 277.0, 15.0, 98.0, 18.0 ],
					"text" : "default time = 10ms"
				}

			}
, 			{
				"box" : 				{
					"fontname" : "Arial",
					"fontsize" : 10.0,
					"id" : "obj-5",
					"maxclass" : "newobj",
					"numinlets" : 2,
					"numoutlets" : 1,
					"outlettype" : [ "int" ],
					"patching_rect" : [ 135.0, 105.0, 32.5, 18.0 ],
					"text" : "i"
				}

			}
, 			{
				"box" : 				{
					"fontname" : "Arial",
					"fontsize" : 10.0,
					"id" : "obj-2",
					"maxclass" : "newobj",
					"numinlets" : 2,
					"numoutlets" : 2,
					"outlettype" : [ "", "" ],
					"patching_rect" : [ 148.5, 40.0, 47.0, 18.0 ],
					"text" : "route int"
				}

			}
, 			{
				"box" : 				{
					"fontname" : "Arial",
					"fontsize" : 10.0,
					"id" : "obj-1",
					"maxclass" : "newobj",
					"numinlets" : 1,
					"numoutlets" : 2,
					"outlettype" : [ "", "" ],
					"patching_rect" : [ 148.5, 15.0, 130.0, 18.0 ],
					"text" : "patcherargs 10 @marker 0"
				}

			}
, 			{
				"box" : 				{
					"bgcolor" : [ 0.65098, 0.65098, 0.65098, 0.15 ],
					"color" : [ 0.65098, 0.65098, 0.65098, 1.0 ],
					"fontname" : "Arial",
					"fontsize" : 10.0,
					"id" : "obj-20",
					"maxclass" : "newobj",
					"numinlets" : 1,
					"numoutlets" : 3,
					"outlettype" : [ "", "", "" ],
					"patching_rect" : [ 135.0, 155.0, 240.0, 18.0 ],
					"restore" : [ 0 ],
					"saved_object_attributes" : 					{
						"parameter_enable" : 0
					}
,
					"text" : "pattr @name speedlim @invisible 1 @autorestore 0",
					"varname" : "speedlim"
				}

			}
, 			{
				"box" : 				{
					"fontname" : "Arial",
					"fontsize" : 10.0,
					"id" : "obj-101",
					"maxclass" : "newobj",
					"numinlets" : 2,
					"numoutlets" : 1,
					"outlettype" : [ "int" ],
					"patching_rect" : [ 50.0, 130.0, 32.5, 18.0 ],
					"text" : "+ 1"
				}

			}
, 			{
				"box" : 				{
					"fontname" : "Arial",
					"fontsize" : 10.0,
					"id" : "obj-100",
					"maxclass" : "newobj",
					"numinlets" : 2,
					"numoutlets" : 1,
					"outlettype" : [ "int" ],
					"patching_rect" : [ 50.0, 100.0, 32.5, 18.0 ],
					"text" : "!= 0"
				}

			}
, 			{
				"box" : 				{
					"fontname" : "Arial",
					"fontsize" : 15.943591,
					"id" : "obj-43",
					"maxclass" : "newobj",
					"numinlets" : 2,
					"numoutlets" : 1,
					"outlettype" : [ "" ],
					"patching_rect" : [ 78.0, 185.0, 106.0, 25.0 ],
					"text" : "speedlim",
					"varname" : "speedlimobj"
				}

			}
, 			{
				"box" : 				{
					"fontname" : "Arial",
					"fontsize" : 10.0,
					"id" : "obj-41",
					"maxclass" : "newobj",
					"numinlets" : 2,
					"numoutlets" : 2,
					"outlettype" : [ "", "" ],
					"patching_rect" : [ 50.0, 155.0, 47.0, 18.0 ],
					"text" : "gate 2 1"
				}

			}
, 			{
				"box" : 				{
					"comment" : "",
					"id" : "obj-105",
					"maxclass" : "inlet",
					"numinlets" : 0,
					"numoutlets" : 1,
					"outlettype" : [ "" ],
					"patching_rect" : [ 78.0, 40.0, 25.0, 25.0 ]
				}

			}
, 			{
				"box" : 				{
					"comment" : "",
					"id" : "obj-106",
					"maxclass" : "outlet",
					"numinlets" : 1,
					"numoutlets" : 0,
					"patching_rect" : [ 78.0, 235.0, 25.0, 25.0 ]
				}

			}
 ],
		"lines" : [ 			{
				"patchline" : 				{
					"destination" : [ "obj-10", 0 ],
					"disabled" : 0,
					"hidden" : 0,
					"source" : [ "obj-1", 1 ]
				}

			}
, 			{
				"patchline" : 				{
					"destination" : [ "obj-2", 0 ],
					"disabled" : 0,
					"hidden" : 0,
					"source" : [ "obj-1", 0 ]
				}

			}
, 			{
				"patchline" : 				{
					"destination" : [ "obj-32", 2 ],
					"disabled" : 0,
					"hidden" : 0,
					"source" : [ "obj-10", 2 ]
				}

			}
, 			{
				"patchline" : 				{
					"destination" : [ "obj-32", 1 ],
					"disabled" : 0,
					"hidden" : 0,
					"source" : [ "obj-10", 1 ]
				}

			}
, 			{
				"patchline" : 				{
					"destination" : [ "obj-32", 0 ],
					"disabled" : 0,
					"hidden" : 0,
					"source" : [ "obj-10", 0 ]
				}

			}
, 			{
				"patchline" : 				{
					"destination" : [ "obj-5", 0 ],
					"disabled" : 0,
					"hidden" : 0,
					"source" : [ "obj-10", 0 ]
				}

			}
, 			{
				"patchline" : 				{
					"destination" : [ "obj-6", 0 ],
					"disabled" : 0,
					"hidden" : 0,
					"midpoints" : [ 356.333344, 122.5, 185.5, 122.5 ],
					"source" : [ "obj-10", 3 ]
				}

			}
, 			{
				"patchline" : 				{
					"destination" : [ "obj-101", 0 ],
					"disabled" : 0,
					"hidden" : 0,
					"source" : [ "obj-100", 0 ]
				}

			}
, 			{
				"patchline" : 				{
					"destination" : [ "obj-41", 0 ],
					"disabled" : 0,
					"hidden" : 0,
					"source" : [ "obj-101", 0 ]
				}

			}
, 			{
				"patchline" : 				{
					"destination" : [ "obj-41", 1 ],
					"disabled" : 0,
					"hidden" : 0,
					"source" : [ "obj-105", 0 ]
				}

			}
, 			{
				"patchline" : 				{
					"destination" : [ "obj-5", 1 ],
					"disabled" : 0,
					"hidden" : 0,
					"source" : [ "obj-2", 0 ]
				}

			}
, 			{
				"patchline" : 				{
					"destination" : [ "obj-100", 0 ],
					"disabled" : 0,
					"hidden" : 0,
					"source" : [ "obj-20", 0 ]
				}

			}
, 			{
				"patchline" : 				{
					"destination" : [ "obj-43", 1 ],
					"disabled" : 0,
					"hidden" : 0,
					"source" : [ "obj-20", 0 ]
				}

			}
, 			{
				"patchline" : 				{
					"destination" : [ "obj-6", 0 ],
					"disabled" : 0,
					"hidden" : 0,
					"source" : [ "obj-32", 0 ]
				}

			}
, 			{
				"patchline" : 				{
					"destination" : [ "obj-106", 0 ],
					"disabled" : 0,
					"hidden" : 0,
					"source" : [ "obj-41", 0 ]
				}

			}
, 			{
				"patchline" : 				{
					"destination" : [ "obj-43", 0 ],
					"disabled" : 0,
					"hidden" : 0,
					"source" : [ "obj-41", 1 ]
				}

			}
, 			{
				"patchline" : 				{
					"destination" : [ "obj-106", 0 ],
					"disabled" : 0,
					"hidden" : 0,
					"source" : [ "obj-43", 0 ]
				}

			}
, 			{
				"patchline" : 				{
					"destination" : [ "obj-20", 0 ],
					"disabled" : 0,
					"hidden" : 0,
					"source" : [ "obj-5", 0 ]
				}

			}
, 			{
				"patchline" : 				{
					"destination" : [ "obj-20", 0 ],
					"disabled" : 0,
					"hidden" : 0,
					"source" : [ "obj-6", 0 ]
				}

			}
 ],
		"dependency_cache" : [  ]
	}

}
