{
	"patcher" : 	{
		"fileversion" : 1,
		"appversion" : 		{
			"major" : 6,
			"minor" : 0,
			"revision" : 5
		}
,
		"rect" : [ 100.0, 100.0, 701.0, 540.0 ],
		"bglocked" : 0,
		"openinpresentation" : 0,
		"default_fontsize" : 10.0,
		"default_fontface" : 0,
		"default_fontname" : "Arial",
		"gridonopen" : 0,
		"gridsize" : [ 5.0, 5.0 ],
		"gridsnaponopen" : 0,
		"statusbarvisible" : 2,
		"toolbarvisible" : 1,
		"boxanimatetime" : 200,
		"imprint" : 0,
		"enablehscroll" : 1,
		"enablevscroll" : 1,
		"devicewidth" : 0.0,
		"description" : "",
		"digest" : "",
		"tags" : "",
		"showrootpatcherontab" : 0,
		"showontab" : 0,
		"boxes" : [ 			{
				"box" : 				{
					"fontname" : "Arial",
					"fontsize" : 10.0,
					"id" : "obj-7",
					"maxclass" : "newobj",
					"numinlets" : 0,
					"numoutlets" : 0,
					"patcher" : 					{
						"fileversion" : 1,
						"appversion" : 						{
							"major" : 6,
							"minor" : 0,
							"revision" : 5
						}
,
						"rect" : [ 0.0, 26.0, 701.0, 514.0 ],
						"bglocked" : 0,
						"openinpresentation" : 0,
						"default_fontsize" : 13.0,
						"default_fontface" : 0,
						"default_fontname" : "Arial",
						"gridonopen" : 0,
						"gridsize" : [ 5.0, 5.0 ],
						"gridsnaponopen" : 0,
						"statusbarvisible" : 2,
						"toolbarvisible" : 1,
						"boxanimatetime" : 200,
						"imprint" : 0,
						"enablehscroll" : 1,
						"enablevscroll" : 1,
						"devicewidth" : 0.0,
						"description" : "",
						"digest" : "",
						"tags" : "",
						"showontab" : 1,
						"boxes" : [ 							{
								"box" : 								{
									"fontface" : 1,
									"fontname" : "Arial",
									"fontsize" : 12.0,
									"frgb" : [ 1.0, 0.0, 0.0, 1.0 ],
									"id" : "obj-1",
									"maxclass" : "comment",
									"numinlets" : 1,
									"numoutlets" : 0,
									"patching_rect" : [ 35.0, 140.0, 50.0, 20.0 ],
									"presentation_rect" : [ 70.0, 166.0, 0.0, 0.0 ],
									"text" : "bug#1:",
									"textcolor" : [ 1.0, 0.0, 0.0, 1.0 ]
								}

							}
, 							{
								"box" : 								{
									"fontname" : "Arial",
									"fontsize" : 13.0,
									"id" : "obj-24",
									"linecount" : 3,
									"maxclass" : "comment",
									"numinlets" : 1,
									"numoutlets" : 0,
									"patching_rect" : [ 85.0, 140.0, 607.0, 51.0 ],
									"prototypename" : "oi.help_digest",
									"text" : "When 'oi.send~' has a name, 'oi.recv~' isn't instantiating the correct number of outlets, always creating the default 8 outlets. And the script to create the 'receive~' objects inside 'oi.recv~' doesn't seem to be executed."
								}

							}
, 							{
								"box" : 								{
									"angle" : 90.0,
									"bgcolor" : [ 0.65098, 0.65098, 0.65098, 1.0 ],
									"grad1" : [ 0.65098, 0.65098, 0.65098, 0.0 ],
									"grad2" : [ 0.65098, 0.65098, 0.65098, 1.0 ],
									"id" : "obj-6",
									"ignoreclick" : 1,
									"maxclass" : "panel",
									"mode" : 1,
									"numinlets" : 1,
									"numoutlets" : 0,
									"patching_rect" : [ 0.0, 0.0, 700.0, 80.0 ],
									"rounded" : 0
								}

							}
, 							{
								"box" : 								{
									"border" : 0,
									"filename" : "helpdetails.js",
									"id" : "obj-2",
									"jsarguments" : [ "oi.recv~" ],
									"maxclass" : "jsui",
									"numinlets" : 1,
									"numoutlets" : 1,
									"outlettype" : [ "" ],
									"parameter_enable" : 0,
									"patching_rect" : [ 10.0, 10.0, 180.0, 55.0 ]
								}

							}
 ],
						"lines" : [  ],
						"dependency_cache" : [ 							{
								"name" : "helpdetails.js",
								"bootpath" : "/Applications/Max6/Cycling '74/help-resources",
								"type" : "TEXT",
								"implicit" : 1
							}
 ]
					}
,
					"patching_rect" : [ 30.0, 150.0, 58.0, 18.0 ],
					"presentation_rect" : [ 21.0, 136.0, 0.0, 0.0 ],
					"saved_object_attributes" : 					{
						"fontname" : "Arial",
						"tags" : "",
						"default_fontface" : 0,
						"globalpatchername" : "",
						"digest" : "",
						"default_fontname" : "Arial",
						"fontface" : 0,
						"fontsize" : 13.0,
						"default_fontsize" : 13.0,
						"description" : ""
					}
,
					"text" : "p \"to do…\"",
					"varname" : "basic_tab[3]"
				}

			}
, 			{
				"box" : 				{
					"fontname" : "Arial",
					"fontsize" : 10.0,
					"id" : "obj-3",
					"maxclass" : "newobj",
					"numinlets" : 0,
					"numoutlets" : 0,
					"patcher" : 					{
						"fileversion" : 1,
						"appversion" : 						{
							"major" : 6,
							"minor" : 0,
							"revision" : 5
						}
,
						"rect" : [ 0.0, 26.0, 701.0, 514.0 ],
						"bglocked" : 0,
						"openinpresentation" : 0,
						"default_fontsize" : 13.0,
						"default_fontface" : 0,
						"default_fontname" : "Arial",
						"gridonopen" : 0,
						"gridsize" : [ 5.0, 5.0 ],
						"gridsnaponopen" : 0,
						"statusbarvisible" : 2,
						"toolbarvisible" : 1,
						"boxanimatetime" : 200,
						"imprint" : 0,
						"enablehscroll" : 1,
						"enablevscroll" : 1,
						"devicewidth" : 0.0,
						"description" : "",
						"digest" : "",
						"tags" : "",
						"showontab" : 1,
						"boxes" : [ 							{
								"box" : 								{
									"fontname" : "Arial",
									"fontsize" : 14.0,
									"id" : "obj-5",
									"maxclass" : "newobj",
									"numinlets" : 0,
									"numoutlets" : 0,
									"patcher" : 									{
										"fileversion" : 1,
										"appversion" : 										{
											"major" : 6,
											"minor" : 0,
											"revision" : 5
										}
,
										"rect" : [ 689.0, 201.0, 501.0, 301.0 ],
										"bglocked" : 0,
										"openinpresentation" : 0,
										"default_fontsize" : 10.0,
										"default_fontface" : 0,
										"default_fontname" : "Arial",
										"gridonopen" : 0,
										"gridsize" : [ 5.0, 5.0 ],
										"gridsnaponopen" : 0,
										"statusbarvisible" : 2,
										"toolbarvisible" : 1,
										"boxanimatetime" : 200,
										"imprint" : 0,
										"enablehscroll" : 1,
										"enablevscroll" : 1,
										"devicewidth" : 0.0,
										"description" : "",
										"digest" : "",
										"tags" : "",
										"boxes" : [ 											{
												"box" : 												{
													"fontname" : "Arial",
													"fontsize" : 10.0,
													"id" : "obj-7",
													"maxclass" : "number~",
													"mode" : 1,
													"numinlets" : 2,
													"numoutlets" : 2,
													"outlettype" : [ "signal", "float" ],
													"patching_rect" : [ 253.5, 85.0, 56.0, 18.0 ],
													"sig" : 0.0
												}

											}
, 											{
												"box" : 												{
													"fontname" : "Arial",
													"fontsize" : 10.0,
													"id" : "obj-9",
													"maxclass" : "newobj",
													"numinlets" : 4,
													"numoutlets" : 0,
													"patching_rect" : [ 253.5, 120.0, 113.5, 18.0 ],
													"text" : "oi.send~ 4",
													"varname" : "~signal[2]"
												}

											}
, 											{
												"box" : 												{
													"fontname" : "Arial",
													"fontsize" : 10.0,
													"id" : "obj-5",
													"maxclass" : "number~",
													"mode" : 2,
													"numinlets" : 2,
													"numoutlets" : 2,
													"outlettype" : [ "signal", "float" ],
													"patching_rect" : [ 140.0, 200.0, 56.0, 18.0 ],
													"sig" : 0.0
												}

											}
, 											{
												"box" : 												{
													"fontname" : "Arial",
													"fontsize" : 10.0,
													"id" : "obj-4",
													"maxclass" : "number~",
													"mode" : 1,
													"numinlets" : 2,
													"numoutlets" : 2,
													"outlettype" : [ "signal", "float" ],
													"patching_rect" : [ 140.0, 85.0, 56.0, 18.0 ],
													"sig" : 0.0
												}

											}
, 											{
												"box" : 												{
													"fontname" : "Arial",
													"fontsize" : 10.0,
													"id" : "obj-3",
													"maxclass" : "newobj",
													"numinlets" : 1,
													"numoutlets" : 4,
													"outlettype" : [ "signal", "signal", "signal", "signal" ],
													"patching_rect" : [ 140.0, 165.0, 113.5, 18.0 ],
													"text" : "oi.recv~",
													"varname" : "~signal[1]"
												}

											}
, 											{
												"box" : 												{
													"fontname" : "Arial",
													"fontsize" : 10.0,
													"id" : "obj-2",
													"maxclass" : "newobj",
													"numinlets" : 4,
													"numoutlets" : 0,
													"patching_rect" : [ 140.0, 120.0, 113.5, 18.0 ],
													"text" : "oi.send~ 4",
													"varname" : "~signal"
												}

											}
 ],
										"lines" : [ 											{
												"patchline" : 												{
													"destination" : [ "obj-5", 0 ],
													"disabled" : 0,
													"hidden" : 0,
													"source" : [ "obj-3", 0 ]
												}

											}
, 											{
												"patchline" : 												{
													"destination" : [ "obj-2", 0 ],
													"disabled" : 0,
													"hidden" : 0,
													"source" : [ "obj-4", 0 ]
												}

											}
, 											{
												"patchline" : 												{
													"destination" : [ "obj-9", 0 ],
													"disabled" : 0,
													"hidden" : 0,
													"source" : [ "obj-7", 0 ]
												}

											}
 ],
										"dependency_cache" : [ 											{
												"name" : "oi.send~.maxpat",
												"bootpath" : "/Applications/Max6/patches/OI lib /API lib/Utilities (objects)/Communication ",
												"type" : "JSON",
												"implicit" : 1
											}
, 											{
												"name" : "oi.pattrutils.js",
												"bootpath" : "/Applications/Max6/patches/OI lib /API lib/Utilities (objects)/Communication ",
												"type" : "TEXT",
												"implicit" : 1
											}
, 											{
												"name" : "oi.recv~.maxpat",
												"bootpath" : "/Applications/Max6/patches/OI lib /API lib/Utilities (objects)/Communication ",
												"type" : "JSON",
												"implicit" : 1
											}
 ]
									}
,
									"patching_rect" : [ 433.0, 476.0, 237.0, 23.0 ],
									"saved_object_attributes" : 									{
										"fontname" : "Arial",
										"tags" : "",
										"default_fontface" : 0,
										"globalpatchername" : "",
										"digest" : "",
										"default_fontname" : "Arial",
										"fontface" : 0,
										"fontsize" : 10.0,
										"default_fontsize" : 10.0,
										"description" : ""
									}
,
									"text" : "p \"LOOK OUT FOR SIGNAL SUMS\"",
									"varname" : "LOOK OUT FOR SIGNAL SUMS"
								}

							}
, 							{
								"box" : 								{
									"bubble" : 1,
									"fontname" : "Arial",
									"fontsize" : 10.0,
									"id" : "obj-58",
									"linecount" : 3,
									"maxclass" : "comment",
									"numinlets" : 1,
									"numoutlets" : 0,
									"patching_rect" : [ 580.0, 280.0, 96.0, 45.0 ],
									"text" : "this is how you can bind to you send~ object"
								}

							}
, 							{
								"box" : 								{
									"fontname" : "Arial",
									"fontsize" : 10.0,
									"id" : "obj-55",
									"linecount" : 8,
									"maxclass" : "message",
									"numinlets" : 2,
									"numoutlets" : 1,
									"outlettype" : [ "" ],
									"patching_rect" : [ 351.0, 322.5, 186.0, 96.0 ],
									"text" : "8 basic_tab[2]::patchbay[1] basic_tab[2]::patchbay[2] basic_tab[2]::patchbay[3] basic_tab[2]::patchbay[4] basic_tab[2]::patchbay[5] basic_tab[2]::patchbay[6] basic_tab[2]::patchbay[7] basic_tab[2]::patchbay[8]"
								}

							}
, 							{
								"box" : 								{
									"fontname" : "Arial",
									"fontsize" : 10.0,
									"id" : "obj-53",
									"maxclass" : "newobj",
									"numinlets" : 1,
									"numoutlets" : 3,
									"outlettype" : [ "", "", "" ],
									"patching_rect" : [ 351.0, 293.5, 229.0, 18.0 ],
									"restore" : [ 8, "basic_tab[2]::patchbay[1]", "basic_tab[2]::patchbay[2]", "basic_tab[2]::patchbay[3]", "basic_tab[2]::patchbay[4]", "basic_tab[2]::patchbay[5]", "basic_tab[2]::patchbay[6]", "basic_tab[2]::patchbay[7]", "basic_tab[2]::patchbay[8]" ],
									"saved_object_attributes" : 									{
										"parameter_enable" : 0
									}
,
									"text" : "pattr @invisible 1 @bindto ~patchbay::~patchbay",
									"varname" : "u417007996"
								}

							}
, 							{
								"box" : 								{
									"fontname" : "Arial",
									"fontsize" : 10.0,
									"id" : "obj-49",
									"maxclass" : "number~",
									"mode" : 2,
									"numinlets" : 2,
									"numoutlets" : 2,
									"outlettype" : [ "signal", "float" ],
									"patching_rect" : [ 565.0, 178.0, 56.0, 18.0 ],
									"sig" : 0.0
								}

							}
, 							{
								"box" : 								{
									"fontname" : "Arial",
									"fontsize" : 10.0,
									"id" : "obj-50",
									"maxclass" : "newobj",
									"numinlets" : 1,
									"numoutlets" : 1,
									"outlettype" : [ "signal" ],
									"patching_rect" : [ 565.0, 155.0, 89.0, 18.0 ],
									"text" : "receive~ signal[1]"
								}

							}
, 							{
								"box" : 								{
									"bubble" : 1,
									"fontname" : "Arial",
									"fontsize" : 10.0,
									"id" : "obj-47",
									"linecount" : 3,
									"maxclass" : "comment",
									"numinlets" : 1,
									"numoutlets" : 0,
									"patching_rect" : [ 500.0, 209.5, 150.0, 45.0 ],
									"text" : "see how oi.send~ works(namespaces, values) with pattrstorage"
								}

							}
, 							{
								"box" : 								{
									"bubble" : 1,
									"fontname" : "Arial",
									"fontsize" : 10.0,
									"id" : "obj-45",
									"maxclass" : "comment",
									"numinlets" : 1,
									"numoutlets" : 0,
									"patching_rect" : [ 461.0, 181.0, 88.0, 22.0 ],
									"text" : "watch it"
								}

							}
, 							{
								"box" : 								{
									"bgcolor" : [ 1.0, 0.788235, 0.470588, 1.0 ],
									"border" : 0,
									"bordercolor" : [ 0.0, 0.0, 0.0, 1.0 ],
									"fontname" : "Arial Bold",
									"fontsize" : 13.0,
									"hint" : "",
									"id" : "obj-46",
									"ignoreclick" : 1,
									"maxclass" : "textbutton",
									"numinlets" : 1,
									"numoutlets" : 3,
									"outlettype" : [ "", "", "int" ],
									"parameter_enable" : 0,
									"patching_rect" : [ 385.0, 180.0, 20.0, 20.0 ],
									"rounded" : 60.0,
									"text" : "2",
									"textcolor" : [ 0.34902, 0.34902, 0.34902, 1.0 ],
									"textovercolor" : [ 0.2, 0.2, 0.2, 1.0 ]
								}

							}
, 							{
								"box" : 								{
									"bubble" : 1,
									"fontname" : "Arial",
									"fontsize" : 10.0,
									"id" : "obj-36",
									"maxclass" : "comment",
									"numinlets" : 1,
									"numoutlets" : 0,
									"patching_rect" : [ 131.0, 195.0, 88.0, 22.0 ],
									"text" : "move it"
								}

							}
, 							{
								"box" : 								{
									"bgcolor" : [ 1.0, 0.788235, 0.470588, 1.0 ],
									"border" : 0,
									"bordercolor" : [ 0.0, 0.0, 0.0, 1.0 ],
									"fontname" : "Arial Bold",
									"fontsize" : 13.0,
									"hint" : "",
									"id" : "obj-37",
									"ignoreclick" : 1,
									"maxclass" : "textbutton",
									"numinlets" : 1,
									"numoutlets" : 3,
									"outlettype" : [ "", "", "int" ],
									"parameter_enable" : 0,
									"patching_rect" : [ 55.0, 194.0, 20.0, 20.0 ],
									"rounded" : 60.0,
									"text" : "2",
									"textcolor" : [ 0.34902, 0.34902, 0.34902, 1.0 ],
									"textovercolor" : [ 0.2, 0.2, 0.2, 1.0 ]
								}

							}
, 							{
								"box" : 								{
									"fontname" : "Arial",
									"fontsize" : 10.0,
									"id" : "obj-32",
									"maxclass" : "number~",
									"mode" : 2,
									"numinlets" : 2,
									"numoutlets" : 2,
									"outlettype" : [ "signal", "float" ],
									"patching_rect" : [ 405.0, 180.0, 56.0, 18.0 ],
									"sig" : 0.0
								}

							}
, 							{
								"box" : 								{
									"fontname" : "Arial",
									"fontsize" : 10.0,
									"id" : "obj-31",
									"maxclass" : "newobj",
									"numinlets" : 1,
									"numoutlets" : 1,
									"outlettype" : [ "signal" ],
									"patching_rect" : [ 405.0, 155.0, 103.0, 18.0 ],
									"text" : "receive~ patchbay[1]"
								}

							}
, 							{
								"box" : 								{
									"fontname" : "Arial",
									"fontsize" : 10.0,
									"id" : "obj-26",
									"maxclass" : "number~",
									"mode" : 1,
									"numinlets" : 2,
									"numoutlets" : 2,
									"outlettype" : [ "signal", "float" ],
									"patching_rect" : [ 75.0, 195.0, 56.0, 18.0 ],
									"sig" : 0.0
								}

							}
, 							{
								"box" : 								{
									"fontface" : 2,
									"fontname" : "Arial",
									"fontsize" : 10.0,
									"id" : "obj-16",
									"maxclass" : "comment",
									"numinlets" : 1,
									"numoutlets" : 0,
									"patching_rect" : [ 188.5, 250.0, 167.0, 18.0 ],
									"text" : "object named \"~patchbay\" (default)"
								}

							}
, 							{
								"box" : 								{
									"bgcolor" : [ 0.901961, 0.901961, 0.901961, 1.0 ],
									"color" : [ 0.65098, 0.65098, 0.65098, 1.0 ],
									"fontface" : 3,
									"fontname" : "Arial",
									"fontsize" : 10.0,
									"id" : "obj-17",
									"maxclass" : "newobj",
									"numinlets" : 8,
									"numoutlets" : 0,
									"patching_rect" : [ 75.0, 250.0, 113.5, 18.0 ],
									"text" : "oi.send~ patchbay 8",
									"varname" : "~patchbay"
								}

							}
, 							{
								"box" : 								{
									"fontname" : "Arial",
									"fontsize" : 10.0,
									"id" : "obj-3",
									"maxclass" : "message",
									"numinlets" : 2,
									"numoutlets" : 1,
									"outlettype" : [ "" ],
									"patching_rect" : [ 433.0, 226.5, 67.0, 16.0 ],
									"text" : "clientwindow"
								}

							}
, 							{
								"box" : 								{
									"active" : 									{
										"~patchbay::u010008030" : 0,
										"~patchbay::~patchbay" : 0,
										"LOOK OUT FOR SIGNAL SUMS::~signal::u521007994" : 0,
										"LOOK OUT FOR SIGNAL SUMS::~signal::~signal" : 0,
										"LOOK OUT FOR SIGNAL SUMS::~signal[2]::u255007938" : 0,
										"LOOK OUT FOR SIGNAL SUMS::~signal[2]::~signal[2]" : 0
									}
,
									"fontname" : "Arial",
									"fontsize" : 10.0,
									"id" : "obj-1",
									"maxclass" : "newobj",
									"numinlets" : 1,
									"numoutlets" : 1,
									"outlettype" : [ "" ],
									"patching_rect" : [ 433.0, 269.5, 64.0, 18.0 ],
									"saved_object_attributes" : 									{
										"parameter_enable" : 0,
										"storage_rect" : [ 200, 200, 800, 500 ],
										"client_rect" : [ 100, 100, 935, 271 ]
									}
,
									"text" : "pattrstorage",
									"varname" : "u134008032"
								}

							}
, 							{
								"box" : 								{
									"fontface" : 1,
									"fontname" : "Arial",
									"fontsize" : 12.0,
									"frgb" : [ 1.0, 0.0, 0.0, 1.0 ],
									"id" : "obj-8",
									"maxclass" : "comment",
									"numinlets" : 1,
									"numoutlets" : 0,
									"patching_rect" : [ 251.0, 30.0, 139.0, 20.0 ],
									"text" : "…needs restructuring ",
									"textcolor" : [ 1.0, 0.0, 0.0, 1.0 ]
								}

							}
, 							{
								"box" : 								{
									"bubble" : 1,
									"fontname" : "Arial",
									"fontsize" : 10.0,
									"id" : "obj-35",
									"maxclass" : "comment",
									"numinlets" : 1,
									"numoutlets" : 0,
									"patching_rect" : [ 87.0, 151.5, 88.0, 22.0 ],
									"text" : "turn audio on"
								}

							}
, 							{
								"box" : 								{
									"bgcolor" : [ 1.0, 0.788235, 0.470588, 1.0 ],
									"border" : 0,
									"bordercolor" : [ 0.0, 0.0, 0.0, 1.0 ],
									"fontname" : "Arial Bold",
									"fontsize" : 13.0,
									"hint" : "",
									"id" : "obj-33",
									"ignoreclick" : 1,
									"maxclass" : "textbutton",
									"numinlets" : 1,
									"numoutlets" : 3,
									"outlettype" : [ "", "", "int" ],
									"parameter_enable" : 0,
									"patching_rect" : [ 19.0, 140.0, 20.0, 20.0 ],
									"rounded" : 60.0,
									"text" : "1",
									"textcolor" : [ 0.34902, 0.34902, 0.34902, 1.0 ],
									"textovercolor" : [ 0.2, 0.2, 0.2, 1.0 ]
								}

							}
, 							{
								"box" : 								{
									"id" : "obj-30",
									"maxclass" : "ezdac~",
									"numinlets" : 2,
									"numoutlets" : 0,
									"patching_rect" : [ 40.75, 140.0, 45.0, 45.0 ]
								}

							}
, 							{
								"box" : 								{
									"fontname" : "Arial",
									"fontsize" : 13.0,
									"frgb" : [ 0.501961, 0.501961, 0.501961, 1.0 ],
									"id" : "obj-25",
									"linecount" : 2,
									"maxclass" : "comment",
									"numinlets" : 1,
									"numoutlets" : 0,
									"patching_rect" : [ 6.5, 90.0, 318.5, 36.0 ],
									"prototypename" : "oi.help_description",
									"text" : "Allows you to send multiple signals while keeping a 'pattr' object to collect each signal channel's name.",
									"textcolor" : [ 0.501961, 0.501961, 0.501961, 1.0 ]
								}

							}
, 							{
								"box" : 								{
									"fontname" : "Arial",
									"fontsize" : 13.0,
									"id" : "obj-24",
									"maxclass" : "comment",
									"numinlets" : 1,
									"numoutlets" : 0,
									"patching_rect" : [ 6.5, 69.0, 223.5, 21.0 ],
									"prototypename" : "oi.help_digest",
									"text" : "Multichannel/pattr-compatible send~"
								}

							}
, 							{
								"box" : 								{
									"angle" : 90.0,
									"bgcolor" : [ 0.65098, 0.65098, 0.65098, 1.0 ],
									"grad1" : [ 0.65098, 0.65098, 0.65098, 0.0 ],
									"grad2" : [ 0.65098, 0.65098, 0.65098, 1.0 ],
									"id" : "obj-6",
									"ignoreclick" : 1,
									"maxclass" : "panel",
									"mode" : 1,
									"numinlets" : 1,
									"numoutlets" : 0,
									"patching_rect" : [ 0.0, 0.0, 700.0, 80.0 ],
									"rounded" : 0
								}

							}
, 							{
								"box" : 								{
									"border" : 0,
									"filename" : "helpdetails.js",
									"id" : "obj-2",
									"jsarguments" : [ "oi.recv~" ],
									"maxclass" : "jsui",
									"numinlets" : 1,
									"numoutlets" : 1,
									"outlettype" : [ "" ],
									"parameter_enable" : 0,
									"patching_rect" : [ 10.0, 10.0, 180.0, 55.0 ]
								}

							}
 ],
						"lines" : [ 							{
								"patchline" : 								{
									"destination" : [ "obj-17", 0 ],
									"disabled" : 0,
									"hidden" : 0,
									"source" : [ "obj-26", 0 ]
								}

							}
, 							{
								"patchline" : 								{
									"destination" : [ "obj-1", 0 ],
									"disabled" : 0,
									"hidden" : 0,
									"source" : [ "obj-3", 0 ]
								}

							}
, 							{
								"patchline" : 								{
									"destination" : [ "obj-32", 0 ],
									"disabled" : 0,
									"hidden" : 0,
									"source" : [ "obj-31", 0 ]
								}

							}
, 							{
								"patchline" : 								{
									"destination" : [ "obj-49", 0 ],
									"disabled" : 0,
									"hidden" : 0,
									"source" : [ "obj-50", 0 ]
								}

							}
, 							{
								"patchline" : 								{
									"destination" : [ "obj-55", 1 ],
									"disabled" : 0,
									"hidden" : 0,
									"midpoints" : [ 360.5, 319.75, 527.5, 319.75 ],
									"source" : [ "obj-53", 0 ]
								}

							}
 ],
						"dependency_cache" : [ 							{
								"name" : "helpdetails.js",
								"bootpath" : "/Applications/Max6/Cycling '74/help-resources",
								"type" : "TEXT",
								"implicit" : 1
							}
, 							{
								"name" : "oi.send~.maxpat",
								"bootpath" : "/Applications/Max6/patches/OI lib /API lib/Utilities (objects)/Communication ",
								"type" : "JSON",
								"implicit" : 1
							}
, 							{
								"name" : "oi.pattrutils.js",
								"bootpath" : "/Applications/Max6/patches/OI lib /API lib/Utilities (objects)/Communication ",
								"type" : "TEXT",
								"implicit" : 1
							}
, 							{
								"name" : "oi.recv~.maxpat",
								"bootpath" : "/Applications/Max6/patches/OI lib /API lib/Utilities (objects)/Communication ",
								"type" : "JSON",
								"implicit" : 1
							}
 ]
					}
,
					"patching_rect" : [ 10.0, 103.0, 62.0, 18.0 ],
					"saved_object_attributes" : 					{
						"fontname" : "Arial",
						"tags" : "",
						"default_fontface" : 0,
						"globalpatchername" : "",
						"digest" : "",
						"default_fontname" : "Arial",
						"fontface" : 0,
						"fontsize" : 13.0,
						"default_fontsize" : 13.0,
						"description" : ""
					}
,
					"text" : "p advanced",
					"varname" : "basic_tab[2]"
				}

			}
, 			{
				"box" : 				{
					"fontname" : "Arial",
					"fontsize" : 10.0,
					"id" : "obj-6",
					"maxclass" : "newobj",
					"numinlets" : 0,
					"numoutlets" : 0,
					"patcher" : 					{
						"fileversion" : 1,
						"appversion" : 						{
							"major" : 6,
							"minor" : 0,
							"revision" : 5
						}
,
						"rect" : [ 0.0, 26.0, 701.0, 514.0 ],
						"bglocked" : 0,
						"openinpresentation" : 0,
						"default_fontsize" : 13.0,
						"default_fontface" : 0,
						"default_fontname" : "Arial",
						"gridonopen" : 0,
						"gridsize" : [ 5.0, 5.0 ],
						"gridsnaponopen" : 0,
						"statusbarvisible" : 2,
						"toolbarvisible" : 1,
						"boxanimatetime" : 200,
						"imprint" : 0,
						"enablehscroll" : 1,
						"enablevscroll" : 1,
						"devicewidth" : 0.0,
						"description" : "",
						"digest" : "",
						"tags" : "",
						"showontab" : 1,
						"boxes" : [ 							{
								"box" : 								{
									"fontface" : 2,
									"fontname" : "Arial",
									"fontsize" : 10.0,
									"id" : "obj-5",
									"linecount" : 10,
									"maxclass" : "comment",
									"numinlets" : 1,
									"numoutlets" : 0,
									"patching_rect" : [ 82.5, 180.0, 192.0, 122.0 ],
									"text" : "oi.recv~ arguments: \n\n(no arguments) — creates the same number of outlets as its correspondent oi.send~ object \n\n(int/list) — will only create outlets according to the passed arguments (Ex.: \"oi.recv~ 1 3 5\", would have 3 outlets, corresponding to channels 1, 3 and 5 ) "
								}

							}
, 							{
								"box" : 								{
									"fontname" : "Arial",
									"fontsize" : 13.0,
									"id" : "obj-3",
									"maxclass" : "comment",
									"numinlets" : 1,
									"numoutlets" : 0,
									"patching_rect" : [ 6.5, 180.0, 76.0, 21.0 ],
									"text" : "Solution#1:"
								}

							}
, 							{
								"box" : 								{
									"fontname" : "Arial",
									"fontsize" : 13.0,
									"frgb" : [ 0.501961, 0.501961, 0.501961, 1.0 ],
									"id" : "obj-25",
									"linecount" : 3,
									"maxclass" : "comment",
									"numinlets" : 1,
									"numoutlets" : 0,
									"patching_rect" : [ 6.5, 105.0, 340.0, 51.0 ],
									"prototypename" : "oi.help_description",
									"text" : "If we have an oi.send~ object with 6 channels (for ex.), we should be able to select, through an oi.recv~ object,  wich channels to receive. ",
									"textcolor" : [ 0.501961, 0.501961, 0.501961, 1.0 ]
								}

							}
, 							{
								"box" : 								{
									"fontname" : "Arial",
									"fontsize" : 13.0,
									"id" : "obj-24",
									"maxclass" : "comment",
									"numinlets" : 1,
									"numoutlets" : 0,
									"patching_rect" : [ 6.5, 69.0, 223.5, 21.0 ],
									"prototypename" : "oi.help_digest",
									"text" : "Add channel selection  ????"
								}

							}
, 							{
								"box" : 								{
									"angle" : 90.0,
									"bgcolor" : [ 0.65098, 0.65098, 0.65098, 1.0 ],
									"grad1" : [ 0.65098, 0.65098, 0.65098, 0.0 ],
									"grad2" : [ 0.65098, 0.65098, 0.65098, 1.0 ],
									"id" : "obj-6",
									"ignoreclick" : 1,
									"maxclass" : "panel",
									"mode" : 1,
									"numinlets" : 1,
									"numoutlets" : 0,
									"patching_rect" : [ 0.0, 0.0, 700.0, 80.0 ],
									"rounded" : 0
								}

							}
, 							{
								"box" : 								{
									"border" : 0,
									"filename" : "helpdetails.js",
									"id" : "obj-2",
									"jsarguments" : [ "oi.recv~" ],
									"maxclass" : "jsui",
									"numinlets" : 1,
									"numoutlets" : 1,
									"outlettype" : [ "" ],
									"parameter_enable" : 0,
									"patching_rect" : [ 10.0, 10.0, 180.0, 55.0 ]
								}

							}
 ],
						"lines" : [  ],
						"dependency_cache" : [ 							{
								"name" : "helpdetails.js",
								"bootpath" : "/Applications/Max6/Cycling '74/help-resources",
								"type" : "TEXT",
								"implicit" : 1
							}
 ]
					}
,
					"patching_rect" : [ 14.0, 125.0, 117.0, 18.0 ],
					"saved_object_attributes" : 					{
						"fontname" : "Arial",
						"tags" : "",
						"default_fontface" : 0,
						"globalpatchername" : "",
						"digest" : "",
						"default_fontname" : "Arial",
						"fontface" : 0,
						"fontsize" : 13.0,
						"default_fontsize" : 13.0,
						"description" : ""
					}
,
					"text" : "p \"future developments\"",
					"varname" : "basic_tab[1]"
				}

			}
, 			{
				"box" : 				{
					"fontname" : "Arial",
					"fontsize" : 10.0,
					"id" : "obj-1",
					"maxclass" : "newobj",
					"numinlets" : 1,
					"numoutlets" : 1,
					"outlettype" : [ "" ],
					"patching_rect" : [ 115.0, 85.0, 106.0, 18.0 ],
					"saved_object_attributes" : 					{
						"parameter_enable" : 0
					}
,
					"text" : "js helpstarter oi.recv~"
				}

			}
, 			{
				"box" : 				{
					"fontname" : "Arial",
					"fontsize" : 10.0,
					"id" : "obj-2",
					"maxclass" : "newobj",
					"numinlets" : 0,
					"numoutlets" : 0,
					"patcher" : 					{
						"fileversion" : 1,
						"appversion" : 						{
							"major" : 6,
							"minor" : 0,
							"revision" : 5
						}
,
						"rect" : [ 100.0, 126.0, 701.0, 514.0 ],
						"bglocked" : 0,
						"openinpresentation" : 0,
						"default_fontsize" : 13.0,
						"default_fontface" : 0,
						"default_fontname" : "Arial",
						"gridonopen" : 0,
						"gridsize" : [ 5.0, 5.0 ],
						"gridsnaponopen" : 0,
						"statusbarvisible" : 2,
						"toolbarvisible" : 1,
						"boxanimatetime" : 200,
						"imprint" : 0,
						"enablehscroll" : 1,
						"enablevscroll" : 1,
						"devicewidth" : 0.0,
						"description" : "",
						"digest" : "",
						"tags" : "",
						"showontab" : 1,
						"boxes" : [ 							{
								"box" : 								{
									"bufsize" : 64,
									"calccount" : 32,
									"id" : "obj-12",
									"maxclass" : "scope~",
									"numinlets" : 2,
									"numoutlets" : 0,
									"patching_rect" : [ 191.0, 462.0, 28.5, 25.0 ]
								}

							}
, 							{
								"box" : 								{
									"bufsize" : 64,
									"calccount" : 32,
									"id" : "obj-11",
									"maxclass" : "scope~",
									"numinlets" : 2,
									"numoutlets" : 0,
									"patching_rect" : [ 159.5, 462.0, 28.5, 25.0 ]
								}

							}
, 							{
								"box" : 								{
									"bufsize" : 64,
									"calccount" : 32,
									"id" : "obj-5",
									"maxclass" : "scope~",
									"numinlets" : 2,
									"numoutlets" : 0,
									"patching_rect" : [ 128.0, 462.0, 28.5, 25.0 ]
								}

							}
, 							{
								"box" : 								{
									"bufsize" : 64,
									"calccount" : 32,
									"id" : "obj-4",
									"maxclass" : "scope~",
									"numinlets" : 2,
									"numoutlets" : 0,
									"patching_rect" : [ 96.5, 462.0, 28.5, 25.0 ]
								}

							}
, 							{
								"box" : 								{
									"fontface" : 2,
									"fontname" : "Arial",
									"fontsize" : 10.0,
									"id" : "obj-3",
									"linecount" : 4,
									"maxclass" : "comment",
									"numinlets" : 1,
									"numoutlets" : 0,
									"patching_rect" : [ 230.0, 435.0, 150.0, 52.0 ],
									"text" : "number of channels/outlets is predetermined by the number of channels of the relative oi.send~ object"
								}

							}
, 							{
								"box" : 								{
									"fontface" : 2,
									"fontname" : "Arial",
									"fontsize" : 10.0,
									"id" : "obj-1",
									"maxclass" : "comment",
									"numinlets" : 1,
									"numoutlets" : 0,
									"patching_rect" : [ 230.0, 417.0, 150.0, 18.0 ],
									"text" : "object named \"~signal\" (default)"
								}

							}
, 							{
								"box" : 								{
									"fontname" : "Arial",
									"fontsize" : 10.0,
									"id" : "obj-43",
									"linecount" : 2,
									"maxclass" : "comment",
									"numinlets" : 1,
									"numoutlets" : 0,
									"patching_rect" : [ 87.0, 330.0, 103.0, 30.0 ],
									"text" : "default = \"signal 8\"\nmax channels = 8"
								}

							}
, 							{
								"box" : 								{
									"fontname" : "Arial",
									"fontsize" : 11.0,
									"id" : "obj-41",
									"maxclass" : "comment",
									"numinlets" : 1,
									"numoutlets" : 0,
									"patching_rect" : [ 87.0, 311.0, 237.0, 19.0 ],
									"text" : "Arguments: <(symbol) name> <(int)> channels"
								}

							}
, 							{
								"box" : 								{
									"fontface" : 1,
									"fontname" : "Arial",
									"fontsize" : 12.0,
									"frgb" : [ 1.0, 0.0, 0.0, 1.0 ],
									"id" : "obj-8",
									"maxclass" : "comment",
									"numinlets" : 1,
									"numoutlets" : 0,
									"patching_rect" : [ 251.0, 30.0, 139.0, 20.0 ],
									"text" : "…needs restructuring ",
									"textcolor" : [ 1.0, 0.0, 0.0, 1.0 ]
								}

							}
, 							{
								"box" : 								{
									"bgcolor" : [ 0.901961, 0.901961, 0.901961, 1.0 ],
									"color" : [ 0.65098, 0.65098, 0.65098, 1.0 ],
									"fontface" : 3,
									"fontname" : "Arial",
									"fontsize" : 10.0,
									"id" : "obj-10",
									"maxclass" : "newobj",
									"numinlets" : 1,
									"numoutlets" : 4,
									"outlettype" : [ "signal", "signal", "signal", "signal" ],
									"patching_rect" : [ 96.5, 417.0, 113.5, 18.0 ],
									"text" : "oi.recv~",
									"varname" : "~signal[1]"
								}

							}
, 							{
								"box" : 								{
									"bubble" : 1,
									"fontname" : "Arial",
									"fontsize" : 10.0,
									"id" : "obj-35",
									"maxclass" : "comment",
									"numinlets" : 1,
									"numoutlets" : 0,
									"patching_rect" : [ 87.0, 151.5, 88.0, 22.0 ],
									"text" : "turn audio on"
								}

							}
, 							{
								"box" : 								{
									"bgcolor" : [ 1.0, 0.788235, 0.470588, 1.0 ],
									"border" : 0,
									"bordercolor" : [ 0.0, 0.0, 0.0, 1.0 ],
									"fontname" : "Arial Bold",
									"fontsize" : 13.0,
									"hint" : "",
									"id" : "obj-33",
									"ignoreclick" : 1,
									"maxclass" : "textbutton",
									"numinlets" : 1,
									"numoutlets" : 3,
									"outlettype" : [ "", "", "int" ],
									"parameter_enable" : 0,
									"patching_rect" : [ 19.0, 140.0, 20.0, 20.0 ],
									"rounded" : 60.0,
									"text" : "1",
									"textcolor" : [ 0.34902, 0.34902, 0.34902, 1.0 ],
									"textovercolor" : [ 0.2, 0.2, 0.2, 1.0 ]
								}

							}
, 							{
								"box" : 								{
									"id" : "obj-30",
									"maxclass" : "ezdac~",
									"numinlets" : 2,
									"numoutlets" : 0,
									"patching_rect" : [ 40.75, 140.0, 45.0, 45.0 ]
								}

							}
, 							{
								"box" : 								{
									"fontname" : "Arial",
									"fontsize" : 13.0,
									"frgb" : [ 0.501961, 0.501961, 0.501961, 1.0 ],
									"id" : "obj-25",
									"linecount" : 2,
									"maxclass" : "comment",
									"numinlets" : 1,
									"numoutlets" : 0,
									"patching_rect" : [ 6.5, 90.0, 329.0, 36.0 ],
									"prototypename" : "oi.help_description",
									"text" : "Allows you to send multiple signals (8) while keeping a 'pattr' object to collect each signal channel's name.",
									"textcolor" : [ 0.501961, 0.501961, 0.501961, 1.0 ]
								}

							}
, 							{
								"box" : 								{
									"fontname" : "Arial",
									"fontsize" : 13.0,
									"id" : "obj-24",
									"maxclass" : "comment",
									"numinlets" : 1,
									"numoutlets" : 0,
									"patching_rect" : [ 6.5, 69.0, 223.5, 21.0 ],
									"prototypename" : "oi.help_digest",
									"text" : "Multichannel/pattr-compatible send~"
								}

							}
, 							{
								"box" : 								{
									"fontname" : "Arial",
									"fontsize" : 10.0,
									"id" : "obj-22",
									"maxclass" : "newobj",
									"numinlets" : 1,
									"numoutlets" : 1,
									"outlettype" : [ "signal" ],
									"patching_rect" : [ 191.0, 254.0, 40.0, 18.0 ],
									"text" : "noise~"
								}

							}
, 							{
								"box" : 								{
									"fontname" : "Arial",
									"fontsize" : 10.0,
									"id" : "obj-21",
									"maxclass" : "newobj",
									"numinlets" : 2,
									"numoutlets" : 1,
									"outlettype" : [ "signal" ],
									"patching_rect" : [ 159.5, 231.0, 53.0, 18.0 ],
									"text" : "saw~ 110"
								}

							}
, 							{
								"box" : 								{
									"fontname" : "Arial",
									"fontsize" : 10.0,
									"id" : "obj-20",
									"maxclass" : "newobj",
									"numinlets" : 2,
									"numoutlets" : 1,
									"outlettype" : [ "signal" ],
									"patching_rect" : [ 128.0, 208.0, 66.0, 18.0 ],
									"text" : "phasor~ 110"
								}

							}
, 							{
								"box" : 								{
									"fontname" : "Arial",
									"fontsize" : 10.0,
									"id" : "obj-19",
									"maxclass" : "newobj",
									"numinlets" : 2,
									"numoutlets" : 1,
									"outlettype" : [ "signal" ],
									"patching_rect" : [ 96.5, 185.0, 58.0, 18.0 ],
									"text" : "cycle~ 110"
								}

							}
, 							{
								"box" : 								{
									"angle" : 90.0,
									"bgcolor" : [ 0.65098, 0.65098, 0.65098, 1.0 ],
									"grad1" : [ 0.65098, 0.65098, 0.65098, 0.0 ],
									"grad2" : [ 0.65098, 0.65098, 0.65098, 1.0 ],
									"id" : "obj-6",
									"ignoreclick" : 1,
									"maxclass" : "panel",
									"mode" : 1,
									"numinlets" : 1,
									"numoutlets" : 0,
									"patching_rect" : [ 0.0, 0.0, 700.0, 80.0 ],
									"rounded" : 0
								}

							}
, 							{
								"box" : 								{
									"fontface" : 2,
									"fontname" : "Arial",
									"fontsize" : 10.0,
									"id" : "obj-9",
									"maxclass" : "comment",
									"numinlets" : 1,
									"numoutlets" : 0,
									"patching_rect" : [ 210.0, 280.0, 150.0, 18.0 ],
									"text" : "object named \"~signal\" (default)"
								}

							}
, 							{
								"box" : 								{
									"bgcolor" : [ 0.901961, 0.901961, 0.901961, 1.0 ],
									"color" : [ 0.65098, 0.65098, 0.65098, 1.0 ],
									"fontface" : 3,
									"fontname" : "Arial",
									"fontsize" : 10.0,
									"id" : "obj-7",
									"maxclass" : "newobj",
									"numinlets" : 4,
									"numoutlets" : 0,
									"patching_rect" : [ 96.5, 280.0, 113.5, 18.0 ],
									"text" : "oi.send~ 4",
									"varname" : "~signal"
								}

							}
, 							{
								"box" : 								{
									"border" : 0,
									"filename" : "helpdetails.js",
									"id" : "obj-2",
									"jsarguments" : [ "oi.recv~" ],
									"maxclass" : "jsui",
									"numinlets" : 1,
									"numoutlets" : 1,
									"outlettype" : [ "" ],
									"parameter_enable" : 0,
									"patching_rect" : [ 10.0, 10.0, 180.0, 55.0 ]
								}

							}
 ],
						"lines" : [ 							{
								"patchline" : 								{
									"destination" : [ "obj-11", 0 ],
									"disabled" : 0,
									"hidden" : 0,
									"source" : [ "obj-10", 2 ]
								}

							}
, 							{
								"patchline" : 								{
									"destination" : [ "obj-12", 0 ],
									"disabled" : 0,
									"hidden" : 0,
									"source" : [ "obj-10", 3 ]
								}

							}
, 							{
								"patchline" : 								{
									"destination" : [ "obj-4", 0 ],
									"disabled" : 0,
									"hidden" : 0,
									"source" : [ "obj-10", 0 ]
								}

							}
, 							{
								"patchline" : 								{
									"destination" : [ "obj-5", 0 ],
									"disabled" : 0,
									"hidden" : 0,
									"source" : [ "obj-10", 1 ]
								}

							}
, 							{
								"patchline" : 								{
									"destination" : [ "obj-7", 0 ],
									"disabled" : 0,
									"hidden" : 0,
									"source" : [ "obj-19", 0 ]
								}

							}
, 							{
								"patchline" : 								{
									"destination" : [ "obj-7", 1 ],
									"disabled" : 0,
									"hidden" : 0,
									"source" : [ "obj-20", 0 ]
								}

							}
, 							{
								"patchline" : 								{
									"destination" : [ "obj-7", 2 ],
									"disabled" : 0,
									"hidden" : 0,
									"source" : [ "obj-21", 0 ]
								}

							}
, 							{
								"patchline" : 								{
									"destination" : [ "obj-7", 3 ],
									"disabled" : 0,
									"hidden" : 0,
									"source" : [ "obj-22", 0 ]
								}

							}
 ],
						"dependency_cache" : [ 							{
								"name" : "helpdetails.js",
								"bootpath" : "/Applications/Max6/Cycling '74/help-resources",
								"type" : "TEXT",
								"implicit" : 1
							}
, 							{
								"name" : "oi.send~.maxpat",
								"bootpath" : "/Applications/Max6/patches/OI lib /API lib/Utilities (objects)/Communication ",
								"type" : "JSON",
								"implicit" : 1
							}
, 							{
								"name" : "oi.pattrutils.js",
								"bootpath" : "/Applications/Max6/patches/OI lib /API lib/Utilities (objects)/Communication ",
								"type" : "TEXT",
								"implicit" : 1
							}
, 							{
								"name" : "oi.recv~.maxpat",
								"bootpath" : "/Applications/Max6/patches/OI lib /API lib/Utilities (objects)/Communication ",
								"type" : "JSON",
								"implicit" : 1
							}
 ]
					}
,
					"patching_rect" : [ 10.0, 85.0, 50.0, 18.0 ],
					"saved_object_attributes" : 					{
						"fontname" : "Arial",
						"tags" : "",
						"default_fontface" : 0,
						"globalpatchername" : "",
						"digest" : "",
						"default_fontname" : "Arial",
						"fontface" : 0,
						"fontsize" : 13.0,
						"default_fontsize" : 13.0,
						"description" : ""
					}
,
					"text" : "p basic",
					"varname" : "basic_tab"
				}

			}
, 			{
				"box" : 				{
					"border" : 0,
					"filename" : "helpname.js",
					"id" : "obj-4",
					"jsarguments" : [ "oi.recv~" ],
					"maxclass" : "jsui",
					"numinlets" : 1,
					"numoutlets" : 1,
					"outlettype" : [ "" ],
					"parameter_enable" : 0,
					"patching_rect" : [ 10.0, 10.0, 305.0, 55.0 ]
				}

			}
, 			{
				"box" : 				{
					"fontname" : "Arial",
					"fontsize" : 10.0,
					"id" : "obj-5",
					"maxclass" : "newobj",
					"numinlets" : 0,
					"numoutlets" : 0,
					"patcher" : 					{
						"fileversion" : 1,
						"appversion" : 						{
							"major" : 6,
							"minor" : 0,
							"revision" : 5
						}
,
						"rect" : [ 0.0, 26.0, 701.0, 514.0 ],
						"bglocked" : 0,
						"openinpresentation" : 0,
						"default_fontsize" : 10.0,
						"default_fontface" : 0,
						"default_fontname" : "Arial",
						"gridonopen" : 0,
						"gridsize" : [ 5.0, 5.0 ],
						"gridsnaponopen" : 0,
						"statusbarvisible" : 2,
						"toolbarvisible" : 1,
						"boxanimatetime" : 200,
						"imprint" : 0,
						"enablehscroll" : 1,
						"enablevscroll" : 1,
						"devicewidth" : 0.0,
						"description" : "",
						"digest" : "",
						"tags" : "",
						"showontab" : 1,
						"boxes" : [  ],
						"lines" : [  ],
						"dependency_cache" : [  ]
					}
,
					"patching_rect" : [ 47.5, 220.0, 50.0, 18.0 ],
					"saved_object_attributes" : 					{
						"fontname" : "Arial",
						"tags" : "",
						"default_fontface" : 0,
						"globalpatchername" : "",
						"digest" : "",
						"default_fontname" : "Arial",
						"fontface" : 0,
						"fontsize" : 10.0,
						"default_fontsize" : 10.0,
						"description" : ""
					}
,
					"text" : "p ?",
					"varname" : "q_tab"
				}

			}
 ],
		"lines" : [  ],
		"dependency_cache" : [ 			{
				"name" : "helpname.js",
				"bootpath" : "/Applications/Max6/Cycling '74/help-resources",
				"patcherrelativepath" : "../../../../../Cycling '74/help-resources",
				"type" : "TEXT",
				"implicit" : 1
			}
, 			{
				"name" : "helpdetails.js",
				"bootpath" : "/Applications/Max6/Cycling '74/help-resources",
				"patcherrelativepath" : "../../../../../Cycling '74/help-resources",
				"type" : "TEXT",
				"implicit" : 1
			}
, 			{
				"name" : "oi.send~.maxpat",
				"bootpath" : "/Applications/Max6/patches/OI lib /API lib/Utilities (objects)/Communication ",
				"patcherrelativepath" : "../Communication ",
				"type" : "JSON",
				"implicit" : 1
			}
, 			{
				"name" : "oi.pattrutils.js",
				"bootpath" : "/Applications/Max6/patches/OI lib /API lib/Utilities (objects)/Communication ",
				"patcherrelativepath" : "../Communication ",
				"type" : "TEXT",
				"implicit" : 1
			}
, 			{
				"name" : "oi.recv~.maxpat",
				"bootpath" : "/Applications/Max6/patches/OI lib /API lib/Utilities (objects)/Communication ",
				"patcherrelativepath" : "../Communication ",
				"type" : "JSON",
				"implicit" : 1
			}
, 			{
				"name" : "helpstarter.js",
				"bootpath" : "/Applications/Max6/Cycling '74/help-resources",
				"patcherrelativepath" : "../../../../../Cycling '74/help-resources",
				"type" : "TEXT",
				"implicit" : 1
			}
 ]
	}

}
